<?xml version="1.0" encoding="UTF-8"?>
<svg width="26px" height="29px" viewBox="0 0 26 29" version="1.1" xmlns="http://www.w3.org/2000/svg" xmlns:xlink="http://www.w3.org/1999/xlink">
    <!-- Generator: Sketch 44.1 (41455) - http://www.bohemiancoding.com/sketch -->
    <title>bell</title>
    <desc>Created with Sketch.</desc>
    <defs></defs>
    <g id="Symbols" stroke="none" stroke-width="1" fill="none" fill-rule="evenodd" opacity="0.799999952">
        <g id="Top-Bar" transform="translate(-1599.000000, -17.000000)" fill="#FFFFFF">
            <path d="M1624.11356,41.8372917 C1623.90331,42.1786458 1623.51725,42.375 1623.05506,42.375 L1615.78814,42.375 C1615.49331,44.4195 1613.7527,46 1611.6357,46 C1609.51931,46 1607.77931,44.4195 1607.48387,42.375 L1600.21756,42.375 C1599.75477,42.375 1599.36931,42.17925 1599.15906,41.8378958 C1598.94881,41.4959375 1598.947,41.0615417 1599.15362,40.6464792 L1602.61006,33.178375 L1602.61006,26.0612917 C1602.61006,21.0648333 1606.65918,17 1611.6357,17 C1616.61343,17 1620.66316,21.0648333 1620.66316,26.0612917 L1620.66316,33.178375 L1624.12745,40.6621875 C1624.32683,41.0615417 1624.32441,41.4953333 1624.11356,41.8372917 Z M1611.6357,44.7916667 C1613.08873,44.7916667 1614.30491,43.7518958 1614.58464,42.375 L1608.68737,42.375 C1608.9671,43.7518958 1610.18268,44.7916667 1611.6357,44.7916667 Z M1619.51525,33.5668542 C1619.51404,33.5638333 1619.51464,33.5602083 1619.51283,33.5565833 C1619.49712,33.5215417 1619.4947,33.4816667 1619.48564,33.4436042 C1619.47658,33.4025208 1619.46208,33.36325 1619.46148,33.3221667 C1619.46148,33.3185417 1619.45966,33.316125 1619.45966,33.3125 L1619.45966,26.0612917 C1619.45966,21.7312292 1615.94945,18.2083333 1611.6357,18.2083333 C1607.32256,18.2083333 1603.81356,21.7312292 1603.81356,26.0612917 L1603.81356,33.3125 C1603.81356,33.316125 1603.81175,33.3191458 1603.81175,33.3221667 C1603.81114,33.36325 1603.79664,33.4025208 1603.78758,33.443 C1603.77852,33.4816667 1603.7761,33.5215417 1603.76039,33.5565833 C1603.75918,33.5602083 1603.75918,33.5638333 1603.75798,33.5668542 L1600.23931,41.1666667 L1623.03391,41.1666667 L1619.51525,33.5668542 Z" id="bell"></path>
        </g>
    </g>
</svg>