<?xml version="1.0" encoding="UTF-8"?>
<svg width="22px" height="22px" viewBox="0 0 22 22" version="1.1" xmlns="http://www.w3.org/2000/svg" xmlns:xlink="http://www.w3.org/1999/xlink">
    <!-- Generator: Sketch 44.1 (41455) - http://www.bohemiancoding.com/sketch -->
    <title>cal-black</title>
    <desc>Created with Sketch.</desc>
    <defs></defs>
    <g id="Symbols" stroke="none" stroke-width="1" fill="none" fill-rule="evenodd">
        <g id="정산-Nav" transform="translate(-15.000000, -15.000000)" fill="#495057">
            <path d="M35.8390417,37 L16.1609583,37 C15.5206667,37 15,36.478875 15,35.8390417 L15,16.1609583 C15,15.521125 15.5206667,15 16.1609583,15 L35.8390417,15 C36.4793333,15 37,15.521125 37,16.1609583 L37,35.8390417 C37,36.478875 36.4793333,37 35.8390417,37 Z M36.0833333,16.1609583 C36.0833333,16.0285 35.9715,15.9166667 35.8390417,15.9166667 L16.1609583,15.9166667 C16.0285,15.9166667 15.9166667,16.0285 15.9166667,16.1609583 L15.9166667,35.8390417 C15.9166667,35.9715 16.0285,36.0833333 16.1609583,36.0833333 L35.8390417,36.0833333 C35.9715,36.0833333 36.0833333,35.9715 36.0833333,35.8390417 L36.0833333,16.1609583 Z M32.4372917,31.9583333 L27.8539583,31.9583333 C27.6009583,31.9583333 27.395625,31.7534583 27.395625,31.5 C27.395625,31.2465417 27.6009583,31.0416667 27.8539583,31.0416667 L32.4372917,31.0416667 C32.6902917,31.0416667 32.895625,31.2465417 32.895625,31.5 C32.895625,31.7534583 32.6902917,31.9583333 32.4372917,31.9583333 Z M32.4166667,29.2083333 L27.8333333,29.2083333 C27.5803333,29.2083333 27.375,29.0034583 27.375,28.75 C27.375,28.4965417 27.5803333,28.2916667 27.8333333,28.2916667 L32.4166667,28.2916667 C32.6696667,28.2916667 32.875,28.4965417 32.875,28.75 C32.875,29.0034583 32.6696667,29.2083333 32.4166667,29.2083333 Z M32.4166667,22.3333333 L27.8333333,22.3333333 C27.5803333,22.3333333 27.375,22.1284583 27.375,21.875 C27.375,21.6215417 27.5803333,21.4166667 27.8333333,21.4166667 L32.4166667,21.4166667 C32.6696667,21.4166667 32.875,21.6215417 32.875,21.875 C32.875,22.1284583 32.6696667,22.3333333 32.4166667,22.3333333 Z M24.4907083,32.7407083 C24.4013333,32.8300833 24.284,32.875 24.1666667,32.875 C24.0493333,32.875 23.932,32.8300833 23.842625,32.7407083 L21.875,30.7730833 L19.907375,32.7407083 C19.818,32.8300833 19.7006667,32.875 19.5833333,32.875 C19.466,32.875 19.3486667,32.8300833 19.2592917,32.7407083 C19.0800833,32.5615 19.0800833,32.2718333 19.2592917,32.092625 L21.2269167,30.125 L19.2592917,28.157375 C19.0800833,27.9781667 19.0800833,27.6885 19.2592917,27.5092917 C19.4385,27.3300833 19.7281667,27.3300833 19.907375,27.5092917 L21.875,29.4769167 L23.842625,27.5092917 C24.0218333,27.3300833 24.3115,27.3300833 24.4907083,27.5092917 C24.6699167,27.6885 24.6699167,27.9781667 24.4907083,28.157375 L22.5230833,30.125 L24.4907083,32.092625 C24.6699167,32.2718333 24.6699167,32.5615 24.4907083,32.7407083 Z M24.1666667,22.3333333 L22.3333333,22.3333333 L22.3333333,24.1666667 C22.3333333,24.420125 22.128,24.625 21.875,24.625 C21.622,24.625 21.4166667,24.420125 21.4166667,24.1666667 L21.4166667,22.3333333 L19.5833333,22.3333333 C19.3303333,22.3333333 19.125,22.1284583 19.125,21.875 C19.125,21.6215417 19.3303333,21.4166667 19.5833333,21.4166667 L21.4166667,21.4166667 L21.4166667,19.5833333 C21.4166667,19.329875 21.622,19.125 21.875,19.125 C22.128,19.125 22.3333333,19.329875 22.3333333,19.5833333 L22.3333333,21.4166667 L24.1666667,21.4166667 C24.4196667,21.4166667 24.625,21.6215417 24.625,21.875 C24.625,22.1284583 24.4196667,22.3333333 24.1666667,22.3333333 Z" id="cal-black"></path>
        </g>
    </g>
</svg>