<?xml version="1.0" encoding="UTF-8"?>
<svg width="22px" height="22px" viewBox="0 0 22 22" version="1.1" xmlns="http://www.w3.org/2000/svg" xmlns:xlink="http://www.w3.org/1999/xlink">
    <!-- Generator: Sketch 44.1 (41455) - http://www.bohemiancoding.com/sketch -->
    <title>chart-black</title>
    <desc>Created with Sketch.</desc>
    <defs></defs>
    <g id="Symbols" stroke="none" stroke-width="1" fill="none" fill-rule="evenodd">
        <g id="리포트-Nav" transform="translate(-16.000000, -16.000000)" fill="#495057">
            <path d="M27.9166667,38 C22.356625,38 17.8333333,33.4767083 17.8333333,27.9166667 C17.8333333,27.6636667 18.0386667,27.4583333 18.2916667,27.4583333 C18.5446667,27.4583333 18.75,27.6636667 18.75,27.9166667 C18.75,32.9711667 22.8621667,37.0833333 27.9166667,37.0833333 C32.9711667,37.0833333 37.0833333,32.9711667 37.0833333,27.9166667 C37.0833333,22.8621667 32.9711667,18.75 27.9166667,18.75 C27.6636667,18.75 27.4583333,18.5446667 27.4583333,18.2916667 C27.4583333,18.0386667 27.6636667,17.8333333 27.9166667,17.8333333 C33.4767083,17.8333333 38,22.356625 38,27.9166667 C38,33.4767083 33.4767083,38 27.9166667,38 Z M26.0741667,25.6158333 C26.0741667,25.8688333 25.8692917,26.0741667 25.6162917,26.0741667 L16.5234167,26.0741667 C16.5023333,26.0769167 16.4803333,26.07875 16.4583333,26.07875 C16.2053333,26.07875 16,25.878 16,25.625 L16,25.6158333 L16,25.615375 L16,25.6149167 C16.0050417,20.3184167 20.318875,16.0050417 25.6158333,16 L25.6158333,16 L25.6162917,16 L25.6204167,16 L25.625,16 L25.625,16 C25.878,16 26.0833333,16.2053333 26.0833333,16.457875 C26.0833333,16.4890417 26.080125,16.51975 26.0741667,16.5490833 L26.0741667,25.6158333 Z M25.1575,16.9290417 C20.7295417,17.164625 17.1650833,20.7290833 16.9290417,25.1575 L25.1575,25.1575 L25.1575,16.9290417 Z" id="chart-black"></path>
        </g>
    </g>
</svg>