<?xml version="1.0" encoding="UTF-8"?>
<svg width="12px" height="13px" viewBox="0 0 12 13" version="1.1" xmlns="http://www.w3.org/2000/svg" xmlns:xlink="http://www.w3.org/1999/xlink">
    <!-- Generator: Sketch 44.1 (41455) - http://www.bohemiancoding.com/sketch -->
    <title>close</title>
    <desc>Created with Sketch.</desc>
    <defs></defs>
    <g id="Page-1" stroke="none" stroke-width="1" fill="none" fill-rule="evenodd" opacity="0.5">
        <g id="Top-알림창" transform="translate(-256.000000, -203.000000)" fill="#495057">
            <g id="Group-Copy" transform="translate(28.568465, 198.975104)">
                <path d="M239.24019,16.1616176 C239.110194,16.2916169 238.939532,16.3569499 238.76887,16.3569499 C238.598208,16.3569499 238.427546,16.2916169 238.29755,16.1616176 L233.435685,11.2996432 L228.57382,16.1616176 C228.443823,16.2916169 228.273161,16.3569499 228.102499,16.3569499 C227.931838,16.3569499 227.761176,16.2916169 227.631179,16.1616176 C227.37052,15.9009523 227.37052,15.4796212 227.631179,15.2189559 L232.493044,10.3569815 L227.631179,5.49500714 C227.37052,5.23434185 227.37052,4.81301074 227.631179,4.55234544 C227.891839,4.29168015 228.31316,4.29168015 228.57382,4.55234544 L233.435685,9.41431983 L238.29755,4.55234544 C238.558209,4.29168015 238.979531,4.29168015 239.24019,4.55234544 C239.50085,4.81301074 239.50085,5.23434185 239.24019,5.49500714 L234.378325,10.3569815 L239.24019,15.2189559 C239.50085,15.4796212 239.50085,15.9009523 239.24019,16.1616176 Z" id="close"></path>
            </g>
        </g>
    </g>
</svg>