<?xml version="1.0" encoding="UTF-8"?>
<svg width="18px" height="18px" viewBox="0 0 18 18" version="1.1" xmlns="http://www.w3.org/2000/svg" xmlns:xlink="http://www.w3.org/1999/xlink">
    <!-- Generator: Sketch 44.1 (41455) - http://www.bohemiancoding.com/sketch -->
    <title>close-x</title>
    <desc>Created with Sketch.</desc>
    <defs></defs>
    <g id="Page-1" stroke="none" stroke-width="1" fill="none" fill-rule="evenodd">
        <g id="스텝-업데이트-Modal" transform="translate(-563.000000, -21.000000)" fill="#D8D8D8">
            <path d="M580.70725,38.70725 C580.51225,38.90225 580.25625,39.00025 580.00025,39.00025 C579.74425,39.00025 579.48825,38.90225 579.29325,38.70725 L572.00025,31.41425 L564.70725,38.70725 C564.51225,38.90225 564.25625,39.00025 564.00025,39.00025 C563.74425,39.00025 563.48825,38.90225 563.29325,38.70725 C562.90225,38.31625 562.90225,37.68425 563.29325,37.29325 L570.58625,30.00025 L563.29325,22.70725 C562.90225,22.31625 562.90225,21.68425 563.29325,21.29325 C563.68425,20.90225 564.31625,20.90225 564.70725,21.29325 L572.00025,28.58625 L579.29325,21.29325 C579.68425,20.90225 580.31625,20.90225 580.70725,21.29325 C581.09825,21.68425 581.09825,22.31625 580.70725,22.70725 L573.41425,30.00025 L580.70725,37.29325 C581.09825,37.68425 581.09825,38.31625 580.70725,38.70725 Z" id="close-x"></path>
        </g>
    </g>
</svg>