<?xml version="1.0" encoding="UTF-8"?>
<svg width="18px" height="28px" viewBox="0 0 18 28" version="1.1" xmlns="http://www.w3.org/2000/svg" xmlns:xlink="http://www.w3.org/1999/xlink">
    <!-- Generator: Sketch 44.1 (41455) - http://www.bohemiancoding.com/sketch -->
    <title>door-black</title>
    <desc>Created with Sketch.</desc>
    <defs></defs>
    <g id="Symbols" stroke="none" stroke-width="1" fill="none" fill-rule="evenodd">
        <g id="객실타입--Nav" transform="translate(-18.000000, -16.000000)" fill-rule="nonzero" fill="#495057">
            <path d="M27.7636664,29.2869211 C28.0818471,29.2869211 28.3379997,29.5148417 28.3379997,29.7979539 L28.3379997,32.8641504 C28.3379997,33.1472625 28.0818471,33.3751831 27.7636664,33.3751831 C27.4454857,33.3751831 27.1893331,33.1472625 27.1893331,32.8641504 L27.1893331,29.7979539 C27.1893331,29.5148417 27.4454857,29.2869211 27.7636664,29.2869211 Z M34.0813329,37.4634451 L30.635333,37.4634451 C30.635333,32.2576056 30.635333,27.0518172 30.635333,21.8459777 C30.6353491,21.6508143 30.5104276,21.4726683 30.3133922,21.3868659 L20.2816287,17.022125 L34.0813329,17.022125 C34.0813329,23.8358881 34.0813329,30.6496922 34.0813329,37.4634451 Z M35.2299995,16.5110922 C35.229968,16.2288693 34.9728487,16.0000902 34.6556662,16.0000595 L18.5821856,16.0000595 C18.1841537,15.9957106 18,16.2301213 18,16.5989234 L18,38.0872628 C17.9999839,38.2824262 18.1249054,38.4605722 18.3219408,38.5463746 L29.8086072,43.5439171 C30.1901977,43.7099517 30.6353221,43.4627651 30.635333,43.0848053 L30.635333,38.4855106 L34.6556662,38.4855106 C34.9728487,38.4854595 35.229968,38.2567212 35.2299995,37.9744779 C35.2299995,30.8200194 35.2299995,23.6655609 35.2299995,16.5110922 L35.2299995,16.5110922 Z M19.1486666,17.6669052 L29.4866664,22.1644022 L29.4866664,42.2673573 L19.1486666,37.7688383 L19.1486666,17.6669052 Z" id="door-black"></path>
        </g>
    </g>
</svg>