<?xml version="1.0" encoding="UTF-8"?>
<svg width="20px" height="24px" viewBox="0 0 20 24" version="1.1" xmlns="http://www.w3.org/2000/svg" xmlns:xlink="http://www.w3.org/1999/xlink">
    <!-- Generator: Sketch 44.1 (41455) - http://www.bohemiancoding.com/sketch -->
    <title>fire-black</title>
    <desc>Created with Sketch.</desc>
    <defs></defs>
    <g id="Symbols" stroke="none" stroke-width="1" fill="none" fill-rule="evenodd">
        <g id="예약현황-Nav" transform="translate(-17.000000, -14.000000)" fill="#495057">
            <path d="M27,38 C21.4857895,38 17,33.668624 17,28.3449017 C17,25.3288101 18.5889474,22.842437 18.6568421,22.737795 C18.7631579,22.5745736 18.9578947,22.4824486 19.1578947,22.5024758 C19.3578947,22.5215016 19.53,22.6476728 19.5989474,22.8274166 C19.6084211,22.8504479 20.4810526,25.0158855 22.72,26.1879756 C22.5889474,23.6530367 22.8184211,16.37266 29.4478947,14.0314839 C29.6331579,13.9658949 29.8415789,14.0044472 29.9873684,14.1316198 C30.1326316,14.2582916 30.1910526,14.4520545 30.1389474,14.6327997 C30.1210526,14.6958853 28.46,20.5818703 31.3494737,23.1042922 C31.6010526,21.9206865 32.2842105,19.798808 34.0626316,18.5931724 C34.2084211,18.4940379 34.3968421,18.4730094 34.5626316,18.5355943 C34.7289474,18.5981792 34.85,18.7363666 34.8847368,18.9030928 C35.2110526,20.4717209 35.5957895,21.5166384 35.9352632,22.4393902 C36.5068421,23.9909952 37,25.3308128 37,28.3449017 C37,33.668624 32.5142105,38 27,38 Z M19.0952632,24.1121595 C18.6542105,25.035412 18.0526316,26.6110496 18.0526316,28.3449017 C18.0526316,33.1168755 22.0663158,36.9996429 27,36.9996429 C31.9336842,36.9996429 35.9473684,33.1168755 35.9473684,28.3449017 C35.9473684,25.5010437 35.5036842,24.2954081 34.9415789,22.7693378 C34.6542105,21.9887789 34.3357895,21.1221032 34.0421053,19.9349927 C32.4994737,21.4971119 32.2636842,24.0125244 32.2615789,24.0410631 C32.2468421,24.2132967 32.1389474,24.3660039 31.9768421,24.4446105 C31.8152632,24.5242185 31.6221053,24.5177097 31.4657895,24.4285888 C27.9284211,22.4108515 28.4694737,17.4701489 28.8921053,15.3497723 C26.4010526,16.5388855 24.7894737,18.7208456 24.0942105,21.8500908 C23.5010526,24.5197124 23.8336842,26.9079523 23.8368421,26.931985 C23.8621053,27.106722 23.7884211,27.2814591 23.6431579,27.3911078 C23.4984211,27.5007566 23.3036842,27.529796 23.1284211,27.4677117 C20.9663158,26.6871528 19.7126316,25.1230309 19.0952632,24.1121595 Z" id="fire-black"></path>
        </g>
    </g>
</svg>