<?xml version="1.0" encoding="UTF-8"?>
<svg width="22px" height="22px" viewBox="0 0 22 22" version="1.1" xmlns="http://www.w3.org/2000/svg" xmlns:xlink="http://www.w3.org/1999/xlink">
    <!-- Generator: Sketch 44.1 (41455) - http://www.bohemiancoding.com/sketch -->
    <title>globe-black</title>
    <desc>Created with Sketch.</desc>
    <defs></defs>
    <g id="Symbols" stroke="none" stroke-width="1" fill="none" fill-rule="evenodd">
        <g id="판매정보-Nav" transform="translate(-15.000000, -15.000000)" fill="#495057">
            <path d="M26,37 C19.934875,37 15,32.065125 15,26 C15,19.934875 19.934875,15 26,15 C32.065125,15 37,19.934875 37,26 C37,32.065125 32.065125,37 26,37 Z M34.721625,31.0444167 C35.5127083,29.6845417 35.992125,28.1239167 36.06775,26.4583333 L31.938625,26.4583333 C31.8909583,28.0629583 31.6081667,29.6034167 31.097125,31.0416667 L34.7083333,31.0416667 C34.7129167,31.0416667 34.7170417,31.0439583 34.721625,31.0444167 Z M26.4583333,25.5416667 L31.0205833,25.5416667 C30.9687917,23.9283333 30.6603333,22.3869583 30.1121667,20.9583333 L26.4583333,20.9583333 L26.4583333,25.5416667 Z M34.1157083,31.9583333 L30.73,31.9583333 C30.112625,33.374125 29.2816667,34.68175 28.2270417,35.827125 C30.6277917,35.2830833 32.700375,33.8769167 34.1157083,31.9583333 Z M26.4583333,36.0599583 C26.5399167,36.0544583 26.6219583,36.0535417 26.7035417,36.0475833 C27.9887083,34.8834167 28.9942917,33.4946667 29.7216667,31.9583333 L26.4583333,31.9583333 L26.4583333,36.0599583 Z M30.1121667,31.0416667 C30.6603333,29.6125833 30.9687917,28.0716667 31.0205833,26.4583333 L26.4583333,26.4583333 L26.4583333,31.0416667 L30.1121667,31.0416667 Z M25.5416667,26.4583333 L20.9794167,26.4583333 C21.0312083,28.0716667 21.3392083,29.6130417 21.887375,31.0416667 L25.5416667,31.0416667 L25.5416667,26.4583333 Z M25.5416667,36.0599583 L25.5416667,31.9583333 L22.2774167,31.9583333 C23.0043333,33.4946667 24.0094583,34.8834167 25.2941667,36.0475833 C25.3762083,36.0530833 25.459625,36.0544583 25.5416667,36.0599583 Z M23.7747917,35.8275833 C22.7362083,34.6904583 21.908,33.3773333 21.2887917,31.9583333 L17.8842917,31.9583333 C19.3000833,33.877375 21.373125,35.284 23.7747917,35.8275833 Z M17.2916667,31.0416667 L20.9198333,31.0416667 C20.4019167,29.592875 20.1113333,28.047375 20.0618333,26.4583333 L15.93225,26.4583333 C16.007875,28.1239167 16.4872917,29.6845417 17.278375,31.0444167 C17.2829583,31.0439583 17.2870833,31.0416667 17.2916667,31.0416667 Z M17.278375,20.9555833 C16.4872917,22.3154583 16.007875,23.8760833 15.93225,25.5416667 L20.061375,25.5416667 C20.1090417,23.9370417 20.3922917,22.3965833 20.9033333,20.9583333 L17.2916667,20.9583333 C17.2870833,20.9583333 17.2829583,20.9560417 17.278375,20.9555833 Z M17.8842917,20.0416667 L21.2704583,20.0416667 C21.8882917,18.625875 22.7197083,17.3177917 23.7747917,16.1724167 C21.373125,16.716 19.3000833,18.122625 17.8842917,20.0416667 Z M25.5416667,15.9400417 C25.461,15.9450833 25.3789583,15.9464583 25.2982917,15.9524167 C24.013125,17.1165833 23.006625,18.5057917 22.27925,20.0416667 L25.5416667,20.0416667 L25.5416667,15.9400417 Z M21.88875,20.9583333 C21.3396667,22.3874167 21.0312083,23.9287917 20.9794167,25.5416667 L25.5416667,25.5416667 L25.5416667,20.9583333 L21.88875,20.9583333 Z M26.4583333,15.9400417 L26.4583333,20.0416667 L29.7216667,20.0416667 C28.9942917,18.5053333 27.98825,17.1165833 26.7030833,15.9524167 C26.6219583,15.9464583 26.5394583,15.9455417 26.4583333,15.9400417 Z M28.2265833,16.172875 C29.2816667,17.31825 30.112625,18.625875 30.73,20.0416667 L34.1157083,20.0416667 C32.700375,18.1230833 30.6277917,16.7164583 28.2265833,16.172875 Z M34.7083333,20.9583333 L31.097125,20.9583333 C31.6081667,22.3965833 31.8909583,23.9370417 31.938625,25.5416667 L36.06775,25.5416667 C35.992125,23.8760833 35.5127083,22.3154583 34.721625,20.9555833 C34.7170417,20.9560417 34.7129167,20.9583333 34.7083333,20.9583333 Z" id="globe-black"></path>
        </g>
    </g>
</svg>