<?xml version="1.0" encoding="UTF-8"?>
<svg width="27px" height="27px" viewBox="0 0 27 27" version="1.1" xmlns="http://www.w3.org/2000/svg" xmlns:xlink="http://www.w3.org/1999/xlink">
    <!-- Generator: Sketch 44.1 (41455) - http://www.bohemiancoding.com/sketch -->
    <title>globe</title>
    <desc>Created with Sketch.</desc>
    <defs></defs>
    <g id="Symbols" stroke="none" stroke-width="1" fill="none" fill-rule="evenodd" opacity="0.8">
        <g id="Top-Bar" transform="translate(-1652.000000, -16.000000)" fill="#FFFFFF">
            <path d="M1665.5,43 C1658.05644,43 1652,36.9435625 1652,29.5 C1652,22.0564375 1658.05644,16 1665.5,16 C1672.94356,16 1679,22.0564375 1679,29.5 C1679,36.9435625 1672.94356,43 1665.5,43 Z M1676.20381,35.690875 C1677.17469,34.0219375 1677.76306,32.106625 1677.85587,30.0625 L1672.78831,30.0625 C1672.72981,32.0318125 1672.38275,33.922375 1671.75556,35.6875 L1676.1875,35.6875 C1676.19313,35.6875 1676.19819,35.6903125 1676.20381,35.690875 Z M1666.0625,28.9375 L1671.66162,28.9375 C1671.59806,26.9575 1671.2195,25.0658125 1670.54675,23.3125 L1666.0625,23.3125 L1666.0625,28.9375 Z M1675.46019,36.8125 L1671.305,36.8125 C1670.54731,38.5500625 1669.5275,40.154875 1668.23319,41.5605625 C1671.17956,40.892875 1673.72319,39.167125 1675.46019,36.8125 Z M1666.0625,41.8463125 C1666.16262,41.8395625 1666.26331,41.8384375 1666.36344,41.831125 C1667.94069,40.402375 1669.17481,38.698 1670.0675,36.8125 L1666.0625,36.8125 L1666.0625,41.8463125 Z M1670.54675,35.6875 C1671.2195,33.933625 1671.59806,32.0425 1671.66162,30.0625 L1666.0625,30.0625 L1666.0625,35.6875 L1670.54675,35.6875 Z M1664.9375,30.0625 L1659.33838,30.0625 C1659.40194,32.0425 1659.77994,33.9341875 1660.45269,35.6875 L1664.9375,35.6875 L1664.9375,30.0625 Z M1664.9375,41.8463125 L1664.9375,36.8125 L1660.93138,36.8125 C1661.8235,38.698 1663.05706,40.402375 1664.63375,41.831125 C1664.73444,41.837875 1664.83681,41.8395625 1664.9375,41.8463125 Z M1662.76906,41.561125 C1661.49444,40.1655625 1660.478,38.554 1659.71806,36.8125 L1655.53981,36.8125 C1657.27738,39.1676875 1659.82156,40.894 1662.76906,41.561125 Z M1654.8125,35.6875 L1659.26525,35.6875 C1658.62963,33.9094375 1658.273,32.0126875 1658.21225,30.0625 L1653.14413,30.0625 C1653.23694,32.106625 1653.82531,34.0219375 1654.79619,35.690875 C1654.80181,35.6903125 1654.80687,35.6875 1654.8125,35.6875 Z M1654.79619,23.309125 C1653.82531,24.9780625 1653.23694,26.893375 1653.14413,28.9375 L1658.21169,28.9375 C1658.27019,26.9681875 1658.61781,25.077625 1659.245,23.3125 L1654.8125,23.3125 C1654.80687,23.3125 1654.80181,23.3096875 1654.79619,23.309125 Z M1655.53981,22.1875 L1659.69556,22.1875 C1660.45381,20.4499375 1661.47419,18.8445625 1662.76906,17.438875 C1659.82156,18.106 1657.27738,19.8323125 1655.53981,22.1875 Z M1664.9375,17.1536875 C1664.8385,17.159875 1664.73781,17.1615625 1664.63881,17.168875 C1663.06156,18.597625 1661.82631,20.3025625 1660.93362,22.1875 L1664.9375,22.1875 L1664.9375,17.1536875 Z M1660.45438,23.3125 C1659.7805,25.066375 1659.40194,26.9580625 1659.33838,28.9375 L1664.9375,28.9375 L1664.9375,23.3125 L1660.45438,23.3125 Z M1666.0625,17.1536875 L1666.0625,22.1875 L1670.0675,22.1875 C1669.17481,20.302 1667.94013,18.597625 1666.36288,17.168875 C1666.26331,17.1615625 1666.16206,17.1604375 1666.0625,17.1536875 Z M1668.23263,17.4394375 C1669.5275,18.845125 1670.54731,20.4499375 1671.305,22.1875 L1675.46019,22.1875 C1673.72319,19.832875 1671.17956,18.1065625 1668.23263,17.4394375 Z M1676.1875,23.3125 L1671.75556,23.3125 C1672.38275,25.077625 1672.72981,26.9681875 1672.78831,28.9375 L1677.85587,28.9375 C1677.76306,26.893375 1677.17469,24.9780625 1676.20381,23.309125 C1676.19819,23.3096875 1676.19313,23.3125 1676.1875,23.3125 Z" id="globe"></path>
        </g>
    </g>
</svg>