<?xml version="1.0" encoding="UTF-8"?>
<svg width="20px" height="22px" viewBox="0 0 20 22" version="1.1" xmlns="http://www.w3.org/2000/svg" xmlns:xlink="http://www.w3.org/1999/xlink">
    <!-- Generator: Sketch 44.1 (41455) - http://www.bohemiancoding.com/sketch -->
    <title>gray-bell</title>
    <desc>Created with Sketch.</desc>
    <defs></defs>
    <g id="Page-1" stroke="none" stroke-width="1" fill="none" fill-rule="evenodd" opacity="0.699999988">
        <g id="예약창" transform="translate(-350.000000, -61.000000)" fill="#495057">
            <g id="gray-bell" transform="translate(350.000000, 61.000000)">
                <path d="M19.861499,18.7995808 C19.7023588,19.057955 19.4101444,19.2065773 19.0603103,19.2065773 L13.5599124,19.2065773 C13.3367503,20.7540787 12.0192706,21.9503741 10.4168933,21.9503741 C8.81497325,21.9503741 7.4979508,20.7540787 7.27433136,19.2065773 L1.77439076,19.2065773 C1.42409937,19.2065773 1.13234232,19.0584123 0.973202104,18.8000381 C0.814061892,18.5412066 0.812689993,18.2124083 0.969086409,17.8982436 L3.58529662,12.2455649 L3.58529662,6.8585773 C3.58529662,3.07671077 6.6501176,0 10.4168933,0 C14.1845835,0 17.2498618,3.07671077 17.2498618,6.8585773 L17.2498618,12.2455649 L19.8720169,17.9101334 C20.0229257,18.2124083 20.0210965,18.5407493 19.861499,18.7995808 Z M10.4168933,21.0357752 C11.5166985,21.0357752 12.4372423,20.2487628 12.6489719,19.2065773 L8.18527189,19.2065773 C8.39700154,20.2487628 9.31708805,21.0357752 10.4168933,21.0357752 Z M16.3809928,12.5396085 C16.3800782,12.537322 16.3805355,12.5345782 16.3791636,12.5318344 C16.3672738,12.505311 16.3654446,12.4751293 16.3585851,12.4463194 C16.3517256,12.415223 16.3407505,12.3854986 16.3402932,12.3544022 C16.3402932,12.3516584 16.3389213,12.3498292 16.3389213,12.3470854 L16.3389213,6.8585773 C16.3389213,3.58111207 13.6820114,0.91459892 10.4168933,0.91459892 C7.15223241,0.91459892 4.49623714,3.58111207 4.49623714,6.8585773 L4.49623714,12.3470854 C4.49623714,12.3498292 4.49486525,12.3521157 4.49486525,12.3544022 C4.49440795,12.3854986 4.48343276,12.415223 4.47657327,12.4458621 C4.46971378,12.4751293 4.46788458,12.505311 4.45599479,12.5318344 C4.45508019,12.5345782 4.45508019,12.537322 4.45416559,12.5396085 L1.79085354,18.2919784 L19.0443049,18.2919784 L16.3809928,12.5396085 Z" id="Shape"></path>
            </g>
        </g>
    </g>
</svg>