<?xml version="1.0" encoding="UTF-8"?>
<svg width="26px" height="18px" viewBox="0 0 26 18" version="1.1" xmlns="http://www.w3.org/2000/svg" xmlns:xlink="http://www.w3.org/1999/xlink">
    <!-- Generator: Sketch 44.1 (41455) - http://www.bohemiancoding.com/sketch -->
    <title>gray-credit-card</title>
    <desc>Created with Sketch.</desc>
    <defs></defs>
    <g id="Page-1" stroke="none" stroke-width="1" fill="none" fill-rule="evenodd" opacity="0.699999988">
        <g id="예약창" transform="translate(-670.000000, -65.000000)" fill="#495057">
            <g id="gray-credit-card" transform="translate(670.000000, 65.000000)">
                <path d="M23.7975833,17.3333333 L2.20241667,17.3333333 C0.988,17.3333333 0,16.3615833 0,15.1666667 L0,2.16666667 C0,0.97175 0.988,0 2.20241667,0 L23.7975833,0 C25.012,0 26,0.97175 26,2.16666667 L26,15.1666667 C26,16.3615833 25.012,17.3333333 23.7975833,17.3333333 Z M24.9166667,2.16666667 C24.9166667,1.56975 24.4145417,1.08333333 23.7975833,1.08333333 L2.20241667,1.08333333 C1.58545833,1.08333333 1.08333333,1.56975 1.08333333,2.16666667 L1.08333333,3.79166667 L24.9166667,3.79166667 L24.9166667,2.16666667 Z M24.9166667,5.95833333 L1.08333333,5.95833333 L1.08333333,15.1666667 C1.08333333,15.764125 1.58545833,16.25 2.20241667,16.25 L23.7975833,16.25 C24.4145417,16.25 24.9166667,15.764125 24.9166667,15.1666667 L24.9166667,5.95833333 Z M21.6666667,14.0833333 L18.4166667,14.0833333 C18.117125,14.0833333 17.875,13.8412083 17.875,13.5416667 C17.875,13.242125 18.117125,13 18.4166667,13 L21.6666667,13 C21.9662083,13 22.2083333,13.242125 22.2083333,13.5416667 C22.2083333,13.8412083 21.9662083,14.0833333 21.6666667,14.0833333 Z" id="Shape"></path>
            </g>
        </g>
    </g>
</svg>