<?xml version="1.0" encoding="UTF-8"?>
<svg width="22px" height="22px" viewBox="0 0 22 22" version="1.1" xmlns="http://www.w3.org/2000/svg" xmlns:xlink="http://www.w3.org/1999/xlink">
    <!-- Generator: Sketch 44.1 (41455) - http://www.bohemiancoding.com/sketch -->
    <title>gray-male-user</title>
    <desc>Created with Sketch.</desc>
    <defs></defs>
    <g id="Page-1" stroke="none" stroke-width="1" fill="none" fill-rule="evenodd" opacity="0.699999988">
        <g id="예약창" transform="translate(-37.000000, -60.000000)" fill="#495057">
            <g id="gray-male-user" transform="translate(37.000000, 60.000000)">
                <path d="M20.8390417,22 L1.16095833,22 C0.521125,22 0,21.47475 0,20.8289583 L0,19.4030833 C0,19.2357917 0.0912083333,19.0817917 0.237875,19.001125 L7.46945833,15.0310417 C5.06870833,12.6192917 5.04166667,8.99570833 5.04166667,8.833 L5.04579167,4.64658333 C5.04579167,4.621375 5.04808333,4.596625 5.05175,4.571875 C5.50320833,1.8535 8.460375,0.0224583333 10.957375,0.00183333333 C10.971125,0.000916666667 10.9857917,0 11,0 C13.5057083,0 16.4940417,1.83654167 16.949625,4.57095833 C16.9532917,4.59525 16.9555833,4.62045833 16.9555833,4.64566667 L16.9583333,8.831625 C16.9583333,8.993875 16.9312917,12.6174583 14.5300833,15.030125 L21.762125,19.0006667 C21.9087917,19.080875 22,19.234875 22,19.4021667 L22,20.8289583 C22,21.47475 21.478875,22 20.8390417,22 Z M21.0833333,19.6744167 L13.5377917,15.530625 C13.536875,15.530625 13.5359583,15.5301667 13.5355,15.5297083 L13.528625,15.5255833 C13.5034167,15.5122917 13.487375,15.4902917 13.4658333,15.472875 C13.4424583,15.4540833 13.4154167,15.439875 13.3957083,15.4155833 C13.3947917,15.4146667 13.3943333,15.4132917 13.3934167,15.4119167 C13.363625,15.3747917 13.344375,15.3317083 13.3274167,15.2881667 C13.3228333,15.27625 13.3132083,15.2657083 13.3095417,15.2537917 C13.2994583,15.2185 13.3008333,15.181375 13.299,15.1447083 C13.2980833,15.1227083 13.29075,15.1011667 13.2930417,15.0791667 C13.294875,15.0608333 13.3049583,15.043875 13.3090833,15.0255417 C13.3177917,14.9856667 13.3260417,14.944875 13.34575,14.9082083 C13.3466667,14.9068333 13.3462083,14.905 13.347125,14.903625 C13.363625,14.873375 13.3892917,14.8522917 13.4112917,14.8275417 C13.4277917,14.80875 13.437875,14.78675 13.4575833,14.7707083 C16.0155417,12.6614583 16.0416667,8.87058333 16.0416667,8.83254167 L16.0389167,4.68508333 C15.6465833,2.476375 13.1074167,0.935916667 11.0385,0.917125 C11.026125,0.918041667 11.0128333,0.9185 11,0.9185 C8.92420833,0.9185 6.35616667,2.464 5.96245833,4.686 L5.95833333,8.83391667 C5.95833333,8.8715 5.99270833,12.6701667 8.54241667,14.7711667 C8.56395833,14.7890417 8.575875,14.8133333 8.59329167,14.8339583 C8.61345833,14.8573333 8.63729167,14.876125 8.652875,14.9045417 C8.65379167,14.9059167 8.65333333,14.9072917 8.65425,14.909125 C8.67441667,14.94625 8.68266667,14.9870417 8.691375,15.0278333 C8.6955,15.0457083 8.705125,15.0622083 8.70695833,15.0800833 C8.70879167,15.101625 8.70191667,15.1231667 8.701,15.1447083 C8.69916667,15.1818333 8.701,15.2189583 8.69045833,15.2547083 C8.68725,15.26525 8.67854167,15.274875 8.67441667,15.2854167 C8.65745833,15.3307917 8.63729167,15.3747917 8.606125,15.4128333 C8.60520833,15.4142083 8.60520833,15.4155833 8.60429167,15.4165 C8.59741667,15.4252083 8.58641667,15.4284167 8.578625,15.4362083 C8.54654167,15.470125 8.51445833,15.503125 8.471375,15.5269583 L0.916666667,19.6744167 L0.916666667,20.8289583 C0.916666667,20.9669167 1.0285,21.0833333 1.16095833,21.0833333 L20.8390417,21.0833333 C20.9737917,21.0833333 21.0833333,20.9692083 21.0833333,20.8289583 L21.0833333,19.6744167 Z" id="Shape"></path>
            </g>
        </g>
    </g>
</svg>