<?xml version="1.0" encoding="UTF-8"?>
<svg width="19px" height="23px" viewBox="0 0 19 23" version="1.1" xmlns="http://www.w3.org/2000/svg" xmlns:xlink="http://www.w3.org/1999/xlink">
    <!-- Generator: Sketch 44.1 (41455) - http://www.bohemiancoding.com/sketch -->
    <title>lock</title>
    <desc>Created with Sketch.</desc>
    <defs></defs>
    <g id="Page-1" stroke="none" stroke-width="1" fill="none" fill-rule="evenodd" opacity="0.799999952">
        <g id="Top-계정창" transform="translate(-31.000000, -97.000000)" fill="#495057">
            <path d="M48.575,120 L32.425,120 C31.63935,120 31,119.355042 31,118.5625 L31,106.104167 C31,105.311625 31.63935,104.666667 32.425,104.666667 L34.8,104.666667 L34.8,102.75 C34.8,99.5793542 37.356925,97 40.5,97 C43.643075,97 46.2,99.5793542 46.2,102.75 L46.2,104.666667 L48.575,104.666667 C49.36065,104.666667 50,105.311625 50,106.104167 L50,118.5625 C50,119.355042 49.36065,120 48.575,120 Z M40.5,97.9583333 C37.88085,97.9583333 35.75,100.107875 35.75,102.75 L35.75,104.666667 L45.25,104.666667 L45.25,102.75 C45.25,100.107875 43.11915,97.9583333 40.5,97.9583333 Z M49.05,106.104167 C49.05,105.839667 48.8372,105.625 48.575,105.625 L32.425,105.625 C32.1628,105.625 31.95,105.839667 31.95,106.104167 L31.95,118.5625 C31.95,118.827 32.1628,119.041667 32.425,119.041667 L48.575,119.041667 C48.8372,119.041667 49.05,118.827 49.05,118.5625 L49.05,106.104167 Z M40.975,112.245167 L40.975,114.729167 C40.975,114.994146 40.762675,115.208333 40.5,115.208333 C40.237325,115.208333 40.025,114.994146 40.025,114.729167 L40.025,112.245167 C39.473525,112.046792 39.075,111.519708 39.075,110.895833 C39.075,110.103292 39.71435,109.458333 40.5,109.458333 C41.28565,109.458333 41.925,110.103292 41.925,110.895833 C41.925,111.519708 41.526475,112.046792 40.975,112.245167 Z M40.5,110.416667 C40.2378,110.416667 40.025,110.631333 40.025,110.895833 C40.025,111.160333 40.2378,111.375 40.5,111.375 C40.7622,111.375 40.975,111.160333 40.975,110.895833 C40.975,110.631333 40.7622,110.416667 40.5,110.416667 Z" id="lock"></path>
        </g>
    </g>
</svg>