<?xml version="1.0" encoding="UTF-8"?>
<svg width="22px" height="22px" viewBox="0 0 22 22" version="1.1" xmlns="http://www.w3.org/2000/svg" xmlns:xlink="http://www.w3.org/1999/xlink">
    <!-- Generator: Sketch 45.1 (43504) - http://www.bohemiancoding.com/sketch -->
    <title>close-white</title>
    <desc>Created with Sketch.</desc>
    <defs></defs>
    <g id="Page-1" stroke="none" stroke-width="1" fill="none" fill-rule="evenodd">
        <g id="재고표---개별선택" transform="translate(-1856.000000, -51.000000)" fill="#FFFFFF">
            <g id="Group-8">
                <path d="M1877.64159,72.6420804 C1877.40327,72.8804125 1877.09039,73.0001897 1876.77751,73.0001897 C1876.46463,73.0001897 1876.15175,72.8804125 1875.91342,72.6420804 L1867,63.7284607 L1858.08658,72.6420804 C1857.84825,72.8804125 1857.53537,73.0001897 1857.22249,73.0001897 C1856.90961,73.0001897 1856.59673,72.8804125 1856.35841,72.6420804 C1855.88053,72.1641941 1855.88053,71.3917537 1856.35841,70.9138673 L1865.27183,62.0002476 L1856.35841,53.0866279 C1855.88053,52.6087415 1855.88053,51.8363011 1856.35841,51.3584148 C1856.83628,50.8805284 1857.60871,50.8805284 1858.08658,51.3584148 L1867,60.2720345 L1875.91342,51.3584148 C1876.39129,50.8805284 1877.16372,50.8805284 1877.64159,51.3584148 C1878.11947,51.8363011 1878.11947,52.6087415 1877.64159,53.0866279 L1868.72817,62.0002476 L1877.64159,70.9138673 C1878.11947,71.3917537 1878.11947,72.1641941 1877.64159,72.6420804 Z" id="close-white"></path>
            </g>
        </g>
    </g>
</svg>