<?xml version="1.0" encoding="UTF-8"?>
<svg width="25px" height="25px" viewBox="0 0 25 25" version="1.1" xmlns="http://www.w3.org/2000/svg" xmlns:xlink="http://www.w3.org/1999/xlink">
    <!-- Generator: Sketch 44.1 (41455) - http://www.bohemiancoding.com/sketch -->
    <title>male</title>
    <desc>Created with Sketch.</desc>
    <defs></defs>
    <g id="Symbols" stroke="none" stroke-width="1" fill="none" fill-rule="evenodd" opacity="0.799999952">
        <g id="Top-Bar" transform="translate(-1789.000000, -18.000000)" fill="#FFFFFF">
            <path d="M1812.33025,42.6299992 L1790.29975,42.6299992 C1789.58342,42.6299992 1789,42.0419579 1789,41.3189648 L1789,39.722633 C1789,39.5353424 1789.10211,39.3629324 1789.26631,39.2726224 L1797.3624,34.8279338 C1794.67465,32.1278701 1794.64437,28.071104 1794.64437,27.8889447 L1794.64899,23.2020611 C1794.64899,23.1738392 1794.65156,23.1461304 1794.65566,23.1184217 C1795.16109,20.0750774 1798.47177,18.0251431 1801.26728,18.0020525 C1801.28267,18.0010262 1801.29909,18 1801.315,18 C1804.12025,18 1807.46583,20.0560918 1807.97587,23.1173955 C1807.97998,23.1445911 1807.98255,23.1728129 1807.98255,23.2010348 L1807.98562,27.8874053 C1807.98562,28.0690515 1807.95535,32.1258176 1805.26709,34.8269076 L1813.36369,39.2721093 C1813.52789,39.3619061 1813.63,39.5343161 1813.63,39.7216068 L1813.63,41.3189648 C1813.63,42.0419579 1813.04658,42.6299992 1812.33025,42.6299992 Z M1812.60375,40.026403 L1804.15617,35.38724 C1804.15515,35.38724 1804.15412,35.3867269 1804.15361,35.3862138 L1804.14591,35.3815957 C1804.11769,35.366715 1804.09973,35.342085 1804.07561,35.3225863 C1804.04944,35.3015482 1804.01917,35.2856413 1803.9971,35.2584457 C1803.99608,35.2574194 1803.99556,35.25588 1803.99454,35.2543407 C1803.96119,35.2127775 1803.93963,35.1645438 1803.92065,35.1157969 C1803.91552,35.1024557 1803.90474,35.0906538 1803.90064,35.0773125 C1803.88935,35.0378019 1803.89089,34.9962388 1803.88883,34.9551888 C1803.88781,34.9305588 1803.8796,34.9064419 1803.88216,34.8818119 C1803.88422,34.8612869 1803.89551,34.8423013 1803.90012,34.8217763 C1803.90987,34.7771344 1803.91911,34.7314663 1803.94117,34.6904163 C1803.9422,34.6888769 1803.94169,34.6868244 1803.94271,34.6852851 C1803.96119,34.6514188 1803.98992,34.6278151 1804.01455,34.6001063 C1804.03302,34.5790682 1804.04431,34.5544382 1804.06638,34.5364788 C1806.93013,32.1750776 1806.95937,27.9310209 1806.95937,27.8884315 L1806.9563,23.2451636 C1806.51706,20.7724143 1803.67435,19.0478012 1801.3581,19.0267631 C1801.34425,19.0277893 1801.32937,19.0283025 1801.315,19.0283025 C1798.99106,19.0283025 1796.11602,20.7585599 1795.67524,23.2461898 L1795.67062,27.8899709 C1795.67062,27.9320472 1795.70911,32.184827 1798.56362,34.5369919 C1798.58774,34.5570038 1798.60108,34.5841994 1798.62058,34.6072901 C1798.64316,34.6334594 1798.66984,34.6544976 1798.68729,34.6863113 C1798.68831,34.6878507 1798.6878,34.6893901 1798.68883,34.6914426 C1798.7114,34.7330057 1798.72064,34.7786738 1798.73039,34.8243419 C1798.73501,34.8443538 1798.74578,34.8628263 1798.74784,34.8828382 C1798.74989,34.906955 1798.74219,34.9310719 1798.74116,34.9551888 C1798.73911,34.9967519 1798.74116,35.038315 1798.72936,35.0783388 C1798.72577,35.0901407 1798.71602,35.1009163 1798.7114,35.1127182 C1798.69242,35.1635175 1798.66984,35.2127775 1798.63495,35.2553669 C1798.63392,35.2569063 1798.63392,35.2584457 1798.6329,35.2594719 C1798.6252,35.2692213 1798.61288,35.2728132 1798.60416,35.2815363 C1798.56824,35.3195075 1798.53232,35.3564525 1798.48409,35.383135 L1790.02625,40.026403 L1790.02625,41.3189648 C1790.02625,41.4734155 1790.15145,41.6037492 1790.29975,41.6037492 L1812.33025,41.6037492 C1812.48111,41.6037492 1812.60375,41.4759811 1812.60375,41.3189648 L1812.60375,40.026403 Z" id="male"></path>
        </g>
    </g>
</svg>