<?xml version="1.0" encoding="UTF-8"?>
<svg width="60px" height="60px" viewBox="0 0 60 60" version="1.1" xmlns="http://www.w3.org/2000/svg" xmlns:xlink="http://www.w3.org/1999/xlink">
    <!-- Generator: Sketch 44.1 (41455) - http://www.bohemiancoding.com/sketch -->
    <title>nav-stock</title>
    <desc>Created with Sketch.</desc>
    <defs></defs>
    <g id="Symbols" stroke="none" stroke-width="1" fill="none" fill-rule="evenodd">
        <g id="nav-stock" fill="#FFFFFF">
            <path d="M42.3125,42 L18.6875,42 C17.757125,42 17,41.242875 17,40.3125 L17,20.0625 C17,19.132125 17.757125,18.375 18.6875,18.375 L24.3125,18.375 L24.3125,15.5625 C24.3125,15.252 24.5645,15 24.875,15 C25.1855,15 25.4375,15.252 25.4375,15.5625 L25.4375,18.375 L35.5625,18.375 L35.5625,15.5625 C35.5625,15.252 35.8145,15 36.125,15 C36.4355,15 36.6875,15.252 36.6875,15.5625 L36.6875,18.375 L42.3125,18.375 C43.242875,18.375 44,19.132125 44,20.0625 L44,40.3125 C44,41.242875 43.242875,42 42.3125,42 Z M42.875,20.0625 C42.875,19.7525625 42.6224375,19.5 42.3125,19.5 L36.6875,19.5 L36.6875,21.1875 C36.6875,21.498 36.4355,21.75 36.125,21.75 C35.8145,21.75 35.5625,21.498 35.5625,21.1875 L35.5625,19.5 L25.4375,19.5 L25.4375,21.1875 C25.4375,21.498 25.1855,21.75 24.875,21.75 C24.5645,21.75 24.3125,21.498 24.3125,21.1875 L24.3125,19.5 L18.6875,19.5 C18.3775625,19.5 18.125,19.7525625 18.125,20.0625 L18.125,40.3125 C18.125,40.6224375 18.3775625,40.875 18.6875,40.875 L42.3125,40.875 C42.6224375,40.875 42.875,40.6224375 42.875,40.3125 L42.875,20.0625 Z M38.9375,35.25 L36.6875,35.25 C36.377,35.25 36.125,34.998 36.125,34.6875 L36.125,32.4375 C36.125,32.127 36.377,31.875 36.6875,31.875 L38.9375,31.875 C39.248,31.875 39.5,32.127 39.5,32.4375 L39.5,34.6875 C39.5,34.998 39.248,35.25 38.9375,35.25 Z M38.375,33 L37.25,33 L37.25,34.125 L38.375,34.125 L38.375,33 Z M38.9375,28.5 L36.6875,28.5 C36.377,28.5 36.125,28.248 36.125,27.9375 L36.125,25.6875 C36.125,25.377 36.377,25.125 36.6875,25.125 L38.9375,25.125 C39.248,25.125 39.5,25.377 39.5,25.6875 L39.5,27.9375 C39.5,28.248 39.248,28.5 38.9375,28.5 Z M38.375,26.25 L37.25,26.25 L37.25,27.375 L38.375,27.375 L38.375,26.25 Z M31.625,35.25 L29.375,35.25 C29.0645,35.25 28.8125,34.998 28.8125,34.6875 L28.8125,32.4375 C28.8125,32.127 29.0645,31.875 29.375,31.875 L31.625,31.875 C31.9355,31.875 32.1875,32.127 32.1875,32.4375 L32.1875,34.6875 C32.1875,34.998 31.9355,35.25 31.625,35.25 Z M31.0625,33 L29.9375,33 L29.9375,34.125 L31.0625,34.125 L31.0625,33 Z M31.625,28.5 L29.375,28.5 C29.0645,28.5 28.8125,28.248 28.8125,27.9375 L28.8125,25.6875 C28.8125,25.377 29.0645,25.125 29.375,25.125 L31.625,25.125 C31.9355,25.125 32.1875,25.377 32.1875,25.6875 L32.1875,27.9375 C32.1875,28.248 31.9355,28.5 31.625,28.5 Z M31.0625,26.25 L29.9375,26.25 L29.9375,27.375 L31.0625,27.375 L31.0625,26.25 Z M24.3125,35.25 L22.0625,35.25 C21.752,35.25 21.5,34.998 21.5,34.6875 L21.5,32.4375 C21.5,32.127 21.752,31.875 22.0625,31.875 L24.3125,31.875 C24.623,31.875 24.875,32.127 24.875,32.4375 L24.875,34.6875 C24.875,34.998 24.623,35.25 24.3125,35.25 Z M23.75,33 L22.625,33 L22.625,34.125 L23.75,34.125 L23.75,33 Z M24.3125,28.5 L22.0625,28.5 C21.752,28.5 21.5,28.248 21.5,27.9375 L21.5,25.6875 C21.5,25.377 21.752,25.125 22.0625,25.125 L24.3125,25.125 C24.623,25.125 24.875,25.377 24.875,25.6875 L24.875,27.9375 C24.875,28.248 24.623,28.5 24.3125,28.5 Z M23.75,26.25 L22.625,26.25 L22.625,27.375 L23.75,27.375 L23.75,26.25 Z" id="Shape"></path>
        </g>
    </g>
</svg>