<?xml version="1.0" encoding="UTF-8"?>
<svg width="60px" height="60px" viewBox="0 0 60 60" version="1.1" xmlns="http://www.w3.org/2000/svg" xmlns:xlink="http://www.w3.org/1999/xlink">
    <!-- Generator: Sketch 44.1 (41455) - http://www.bohemiancoding.com/sketch -->
    <title>nav-bars</title>
    <desc>Created with Sketch.</desc>
    <defs></defs>
    <g id="Symbols" stroke="none" stroke-width="1" fill="none" fill-rule="evenodd">
        <g id="nav-bars" fill="#FFFFFF">
            <path d="M43.4130435,43 L37.5434783,43 C37.2188913,43 36.9565217,42.748 36.9565217,42.4375 L36.9565217,16.5625 C36.9565217,16.252 37.2188913,16 37.5434783,16 L43.4130435,16 C43.7376304,16 44,16.252 44,16.5625 L44,42.4375 C44,42.748 43.7376304,43 43.4130435,43 Z M42.826087,17.125 L38.1304348,17.125 L38.1304348,41.875 L42.826087,41.875 L42.826087,17.125 Z M33.4347826,43 L27.5652174,43 C27.2412174,43 26.9782609,42.748 26.9782609,42.4375 L26.9782609,30.0625 C26.9782609,29.752 27.2412174,29.5 27.5652174,29.5 L33.4347826,29.5 C33.7593696,29.5 34.0217391,29.752 34.0217391,30.0625 L34.0217391,42.4375 C34.0217391,42.748 33.7593696,43 33.4347826,43 Z M32.8478261,30.625 L28.1521739,30.625 L28.1521739,41.875 L32.8478261,41.875 L32.8478261,30.625 Z M23.4565217,43 L17.5869565,43 C17.2629565,43 17,42.748 17,42.4375 L17,25.5625 C17,25.252 17.2629565,25 17.5869565,25 L23.4565217,25 C23.7805217,25 24.0434783,25.252 24.0434783,25.5625 L24.0434783,42.4375 C24.0434783,42.748 23.7805217,43 23.4565217,43 Z M22.8695652,26.125 L18.173913,26.125 L18.173913,41.875 L22.8695652,41.875 L22.8695652,26.125 Z" id="Shape" transform="translate(30.500000, 29.500000) rotate(-270.000000) translate(-30.500000, -29.500000) "></path>
        </g>
    </g>
</svg>