<?xml version="1.0" encoding="UTF-8"?>
<svg width="60px" height="60px" viewBox="0 0 60 60" version="1.1" xmlns="http://www.w3.org/2000/svg" xmlns:xlink="http://www.w3.org/1999/xlink">
    <!-- Generator: Sketch 44.1 (41455) - http://www.bohemiancoding.com/sketch -->
    <title>nav-plugins</title>
    <desc>Created with Sketch.</desc>
    <defs></defs>
    <g id="Symbols" stroke="none" stroke-width="1" fill="none" fill-rule="evenodd">
        <g id="nav-plugins" fill="#FFFFFF">
            <path d="M40.2421716,26.833625 L42.7445553,29.2056875 C43.6660086,30.1270625 43.6660086,31.60925 42.7553292,32.5199375 L31.7806784,43.3205 C31.3270398,43.7733125 30.7305051,44 30.1334033,44 C29.5351675,44 28.9363646,43.77275 28.4804578,43.317125 L17.682159,32.5199375 C16.7726137,31.60925 16.7726137,30.1270625 17.682159,29.216375 L19.5959467,27.16775 C20.071133,26.691875 20.6551927,26.486 21.2080647,26.588375 C21.7626378,26.6901875 22.2332878,27.0906875 22.4998005,27.686375 C22.5207813,27.7375625 23.6401344,30.498875 25.6724352,30.498875 C28.0642445,30.498875 29.9383388,28.718 29.9383388,26.4449375 C29.9383388,24.3996875 27.1359866,23.2566875 27.1076341,23.2454375 C26.4901187,22.96925 26.0897826,22.4984375 25.9871469,21.9438125 C25.8856453,21.3903125 26.0914838,20.8075625 26.552494,20.3463125 L28.4634464,18.2628125 C28.9199202,17.8055 29.5068151,17.5625 30.1322692,17.5625 C30.7571564,17.5625 31.3440512,17.8055 31.7840806,18.2459375 L34.1662501,20.7580625 C34.7202562,18.600875 36.6754384,17 39.0026042,17 C41.7578914,17 44,19.242125 44,21.99725 C44,24.324875 42.3992229,26.280125 40.2421716,26.833625 Z M39.0026042,18.125 C36.8671007,18.125 35.129665,19.862 35.129665,21.99725 C35.1273968,22.043375 35.1137877,22.07825 35.105849,22.1148125 C35.0979103,22.1508125 35.0962092,22.1879375 35.082033,22.2205625 C35.0378032,22.302125 35.0026462,22.356125 34.9567153,22.4005625 C34.8637194,22.4675 34.8223249,22.4984375 34.7729917,22.518125 C34.7349995,22.5333125 34.6953061,22.5355625 34.6556127,22.54175 C34.6255592,22.5468125 34.5983409,22.55975 34.5671532,22.55975 C34.5132836,22.5575 34.470188,22.542875 34.4259582,22.5310625 C34.3987399,22.5243125 34.3698204,22.52375 34.3443033,22.5130625 C34.246771,22.45175 34.2008401,22.425875 34.164549,22.3881875 C34.1628478,22.3865 30.9777381,19.030625 30.9777381,19.030625 C30.5433792,18.5958125 29.7307991,18.5856875 29.2760265,19.04075 L27.365074,21.12425 C27.1495957,21.34025 27.0594351,21.552875 27.0934579,21.7401875 C27.1280479,21.9275 27.2890896,22.094 27.5465295,22.2093125 C27.6695789,22.25825 31.0633624,23.6465 31.0633624,26.4449375 C31.0633624,29.349125 28.6953691,31.623875 25.6724352,31.623875 C22.8717841,31.623875 21.5193741,28.2651875 21.4632364,28.12175 C21.3583325,27.8894375 21.1916203,27.729125 21.0044944,27.69425 C20.8173685,27.65825 20.6035913,27.7499375 20.4045574,27.9490625 L18.4907697,29.9976875 C18.0065106,30.4836875 18.0065106,31.252625 18.4782947,31.7245625 L29.2754594,42.52175 C29.7478106,42.9936875 30.5167279,42.993125 30.988512,42.5211875 L41.9631629,31.7211875 C42.4321117,31.252625 42.4321117,30.4836875 41.9597606,30.0111875 L38.6153103,26.8415 C38.5756169,26.8004375 38.5512339,26.757125 38.5257167,26.7138125 C38.4769505,26.6339375 38.4775176,26.608625 38.470713,26.5855625 C38.4571039,26.53775 38.4423606,26.4905 38.4417936,26.441 C38.4400924,26.405 38.4520004,26.381375 38.4559698,26.354375 C38.4622073,26.3105 38.4656096,26.2671875 38.482054,26.226125 C38.4990654,26.183375 38.5268508,26.1490625 38.552935,26.1125 C38.5682453,26.091125 38.5756169,26.0658125 38.5943295,26.046125 C38.6334558,26.007875 38.6754174,25.985375 38.7156778,25.960625 C38.7383598,25.947125 38.7570724,25.926875 38.7808884,25.91675 C38.8931639,25.8880625 38.9430642,25.872875 38.9952326,25.8723125 C41.1381077,25.870625 42.8749764,24.1330625 42.8749764,21.99725 C42.8749764,19.862 41.1381077,18.125 39.0026042,18.125 Z" id="Shape"></path>
        </g>
    </g>
</svg>