<?xml version="1.0" encoding="UTF-8"?>
<svg width="60px" height="60px" viewBox="0 0 60 60" version="1.1" xmlns="http://www.w3.org/2000/svg" xmlns:xlink="http://www.w3.org/1999/xlink">
    <!-- Generator: Sketch 44.1 (41455) - http://www.bohemiancoding.com/sketch -->
    <title>nav-globe</title>
    <desc>Created with Sketch.</desc>
    <defs></defs>
    <g id="Symbols" stroke="none" stroke-width="1" fill="none" fill-rule="evenodd">
        <g id="nav-globe" fill="#FFFFFF">
            <g id="Group-2" transform="translate(17.000000, 17.000000)">
                <path d="M13.5,27 C6.0564375,27 0,20.9435625 0,13.5 C0,6.0564375 6.0564375,0 13.5,0 C20.9435625,0 27,6.0564375 27,13.5 C27,20.9435625 20.9435625,27 13.5,27 Z M24.2038125,19.690875 C25.1746875,18.0219375 25.7630625,16.106625 25.855875,14.0625 L20.7883125,14.0625 C20.7298125,16.0318125 20.38275,17.922375 19.7555625,19.6875 L24.1875,19.6875 C24.193125,19.6875 24.1981875,19.6903125 24.2038125,19.690875 Z M14.0625,12.9375 L19.661625,12.9375 C19.5980625,10.9575 19.2195,9.0658125 18.54675,7.3125 L14.0625,7.3125 L14.0625,12.9375 Z M23.4601875,20.8125 L19.305,20.8125 C18.5473125,22.5500625 17.5275,24.154875 16.2331875,25.5605625 C19.1795625,24.892875 21.7231875,23.167125 23.4601875,20.8125 Z M14.0625,25.8463125 C14.162625,25.8395625 14.2633125,25.8384375 14.3634375,25.831125 C15.9406875,24.402375 17.1748125,22.698 18.0675,20.8125 L14.0625,20.8125 L14.0625,25.8463125 Z M18.54675,19.6875 C19.2195,17.933625 19.5980625,16.0425 19.661625,14.0625 L14.0625,14.0625 L14.0625,19.6875 L18.54675,19.6875 Z M12.9375,14.0625 L7.338375,14.0625 C7.4019375,16.0425 7.7799375,17.9341875 8.4526875,19.6875 L12.9375,19.6875 L12.9375,14.0625 Z M12.9375,25.8463125 L12.9375,20.8125 L8.931375,20.8125 C9.8235,22.698 11.0570625,24.402375 12.63375,25.831125 C12.7344375,25.837875 12.8368125,25.8395625 12.9375,25.8463125 Z M10.7690625,25.561125 C9.4944375,24.1655625 8.478,22.554 7.7180625,20.8125 L3.5398125,20.8125 C5.277375,23.1676875 7.8215625,24.894 10.7690625,25.561125 Z M2.8125,19.6875 L7.26525,19.6875 C6.629625,17.9094375 6.273,16.0126875 6.21225,14.0625 L1.144125,14.0625 C1.2369375,16.106625 1.8253125,18.0219375 2.7961875,19.690875 C2.8018125,19.6903125 2.806875,19.6875 2.8125,19.6875 Z M2.7961875,7.309125 C1.8253125,8.9780625 1.2369375,10.893375 1.144125,12.9375 L6.2116875,12.9375 C6.2701875,10.9681875 6.6178125,9.077625 7.245,7.3125 L2.8125,7.3125 C2.806875,7.3125 2.8018125,7.3096875 2.7961875,7.309125 Z M3.5398125,6.1875 L7.6955625,6.1875 C8.4538125,4.4499375 9.4741875,2.8445625 10.7690625,1.438875 C7.8215625,2.106 5.277375,3.8323125 3.5398125,6.1875 Z M12.9375,1.1536875 C12.8385,1.159875 12.7378125,1.1615625 12.6388125,1.168875 C11.0615625,2.597625 9.8263125,4.3025625 8.933625,6.1875 L12.9375,6.1875 L12.9375,1.1536875 Z M8.454375,7.3125 C7.7805,9.066375 7.4019375,10.9580625 7.338375,12.9375 L12.9375,12.9375 L12.9375,7.3125 L8.454375,7.3125 Z M14.0625,1.1536875 L14.0625,6.1875 L18.0675,6.1875 C17.1748125,4.302 15.940125,2.597625 14.362875,1.168875 C14.2633125,1.1615625 14.1620625,1.1604375 14.0625,1.1536875 Z M16.232625,1.4394375 C17.5275,2.845125 18.5473125,4.4499375 19.305,6.1875 L23.4601875,6.1875 C21.7231875,3.832875 19.1795625,2.1065625 16.232625,1.4394375 Z M24.1875,7.3125 L19.7555625,7.3125 C20.38275,9.077625 20.7298125,10.9681875 20.7883125,12.9375 L25.855875,12.9375 C25.7630625,10.893375 25.1746875,8.9780625 24.2038125,7.309125 C24.1981875,7.3096875 24.193125,7.3125 24.1875,7.3125 Z" id="Shape"></path>
            </g>
        </g>
    </g>
</svg>