<?xml version="1.0" encoding="UTF-8"?>
<svg width="60px" height="60px" viewBox="0 0 60 60" version="1.1" xmlns="http://www.w3.org/2000/svg" xmlns:xlink="http://www.w3.org/1999/xlink">
    <!-- Generator: Sketch 44.1 (41455) - http://www.bohemiancoding.com/sketch -->
    <title>nav-close</title>
    <desc>Created with Sketch.</desc>
    <defs></defs>
    <g id="Symbols" stroke="none" stroke-width="1" fill="none" fill-rule="evenodd">
        <g id="nav-close" fill="#FFFFFF">
            <path d="M39.6741757,39.6741757 C39.4575151,39.8908364 39.1730785,39.9997222 38.888642,39.9997222 C38.6042054,39.9997222 38.3197689,39.8908364 38.1031082,39.6741757 L30,31.5710675 L21.8968918,39.6741757 C21.6802311,39.8908364 21.3957946,39.9997222 21.111358,39.9997222 C20.8269215,39.9997222 20.5424849,39.8908364 20.3258243,39.6741757 C19.8913919,39.2397433 19.8913919,38.5375406 20.3258243,38.1031082 L28.4289325,30 L20.3258243,21.8968918 C19.8913919,21.4624594 19.8913919,20.7602567 20.3258243,20.3258243 C20.7602567,19.8913919 21.4624594,19.8913919 21.8968918,20.3258243 L30,28.4289325 L38.1031082,20.3258243 C38.5375406,19.8913919 39.2397433,19.8913919 39.6741757,20.3258243 C40.1086081,20.7602567 40.1086081,21.4624594 39.6741757,21.8968918 L31.5710675,30 L39.6741757,38.1031082 C40.1086081,38.5375406 40.1086081,39.2397433 39.6741757,39.6741757 Z" id="Path"></path>
        </g>
    </g>
</svg>