<?xml version="1.0" encoding="UTF-8"?>
<svg width="60px" height="60px" viewBox="0 0 60 60" version="1.1" xmlns="http://www.w3.org/2000/svg" xmlns:xlink="http://www.w3.org/1999/xlink">
    <!-- Generator: Sketch 44.1 (41455) - http://www.bohemiancoding.com/sketch -->
    <title>nav-rooms</title>
    <desc>Created with Sketch.</desc>
    <defs></defs>
    <g id="Symbols" stroke="none" stroke-width="1" fill="none" fill-rule="evenodd">
        <g id="nav-rooms" fill-rule="nonzero" fill="#FFFFFF">
            <path d="M31.3573952,32.3767395 C31.7256206,32.3767395 32.0220619,32.6405083 32.0220619,32.9681495 L32.0220619,36.5166092 C32.0220619,36.8442503 31.7256206,37.1080192 31.3573952,37.1080192 C30.9891699,37.1080192 30.6927285,36.8442503 30.6927285,36.5166092 L30.6927285,32.9681495 C30.6927285,32.6405083 30.9891699,32.3767395 31.3573952,32.3767395 Z M38.6687287,41.8392988 L34.6807286,41.8392988 C34.6807286,35.8146647 34.6807286,29.7900898 34.6807286,23.7654557 C34.6807473,23.5395963 34.5361776,23.3334307 34.3081517,23.234133 L22.6985537,18.1828888 L38.6687287,18.1828888 C38.6687287,26.0683469 38.6687287,33.9538524 38.6687287,41.8392988 Z M39.9980621,17.5914788 C39.9980256,17.2648667 39.7004656,17.0001043 39.3333954,17.0000688 L20.7318156,17.0000688 C20.2711796,16.9950359 20.0580616,17.2663157 20.0580616,17.6931244 L20.0580616,42.5612329 C20.058043,42.7870924 20.2026126,42.9932579 20.4306385,43.0925556 L33.7239722,48.876131 C34.1655807,49.0682801 34.680716,48.7822151 34.6807286,48.3448083 L34.6807286,43.0221187 L39.3333954,43.0221187 C39.7004656,43.0220596 39.9980256,42.7573445 39.9980621,42.4307087 C39.9980621,34.1509694 39.9980621,25.87123 39.9980621,17.5914788 L39.9980621,17.5914788 Z M21.387395,18.9290825 L33.3513953,24.1339633 L33.3513953,47.3987889 L21.387395,42.1927254 L21.387395,18.9290825 Z" id="Shape"></path>
        </g>
    </g>
</svg>