<?xml version="1.0" encoding="UTF-8"?>
<svg width="60px" height="60px" viewBox="0 0 60 60" version="1.1" xmlns="http://www.w3.org/2000/svg" xmlns:xlink="http://www.w3.org/1999/xlink">
    <!-- Generator: Sketch 44.1 (41455) - http://www.bohemiancoding.com/sketch -->
    <title>nav-fire</title>
    <desc>Created with Sketch.</desc>
    <defs></defs>
    <g id="Symbols" stroke="none" stroke-width="1" fill="none" fill-rule="evenodd">
        <g id="nav-fire" fill="#FFFFFF">
            <path d="M29.7254026,42.5 C23.3840605,42.5 18.2254026,37.266254 18.2254026,30.8334229 C18.2254026,27.1889788 20.0526921,24.1846114 20.130771,24.058169 C20.2530342,23.8609431 20.4769816,23.7496254 20.7069816,23.7738249 C20.9369816,23.7968145 21.1349026,23.9492713 21.2141921,24.1664618 C21.2250868,24.1942912 22.2286131,26.8108617 24.8034026,28.2271372 C24.6526921,25.164086 24.9165868,16.3669642 32.5404816,13.5380431 C32.7535342,13.4587897 32.9932184,13.5053738 33.1608763,13.6590406 C33.3279289,13.8121024 33.3951131,14.0462325 33.3351921,14.2646329 C33.3146131,14.3408614 31.4044026,21.4530933 34.7272973,24.5010198 C35.0166131,23.0708296 35.8022447,20.506893 37.8474289,19.0500833 C38.0150868,18.9302958 38.231771,18.9048863 38.4224289,18.9805097 C38.6136921,19.0561332 38.7529026,19.2231097 38.79285,19.4245705 C39.1681131,21.319996 39.6105605,22.5826047 40.0009552,23.6975965 C40.658271,25.5724525 41.2254026,27.1913988 41.2254026,30.8334229 C41.2254026,37.266254 36.0667447,42.5 29.7254026,42.5 Z M20.6349552,25.7188594 C20.1277447,26.8344562 19.4359289,28.7383516 19.4359289,30.8334229 C19.4359289,36.5995579 24.0516658,41.2912352 29.7254026,41.2912352 C35.3991394,41.2912352 40.0148763,36.5995579 40.0148763,30.8334229 C40.0148763,27.3970945 39.5046394,25.9402848 38.8582184,24.0962832 C38.5277447,23.1531079 38.1615605,22.1058747 37.8238237,20.6714495 C36.0497973,22.5590102 35.7786394,25.5984669 35.7762184,25.6329512 C35.759271,25.8410669 35.6351921,26.025588 35.448771,26.1205711 C35.2629552,26.2167641 35.0408237,26.2088992 34.8610605,26.1012115 C30.7930868,23.6631122 31.4152973,17.6930966 31.9013237,15.1309749 C29.0366131,16.56782 27.1832973,19.2043551 26.3837447,22.9855263 C25.7016131,26.2113192 26.0841394,29.0971091 26.087771,29.1261485 C26.1168237,29.3372891 26.0320868,29.5484297 25.8650342,29.6809219 C25.6985868,29.8134142 25.4746394,29.8485034 25.2730868,29.773485 C22.7866658,28.8303096 21.3449289,26.940329 20.6349552,25.7188594 Z" id="Shape"></path>
        </g>
    </g>
</svg>