<?xml version="1.0" encoding="UTF-8"?>
<svg width="60px" height="60px" viewBox="0 0 60 60" version="1.1" xmlns="http://www.w3.org/2000/svg" xmlns:xlink="http://www.w3.org/1999/xlink">
    <!-- Generator: Sketch 44.1 (41455) - http://www.bohemiancoding.com/sketch -->
    <title>nav-report</title>
    <desc>Created with Sketch.</desc>
    <defs></defs>
    <g id="Symbols" stroke="none" stroke-width="1" fill="none" fill-rule="evenodd">
        <g id="nav-report" fill="#FFFFFF">
            <path d="M30.625,43 C23.8013125,43 18.25,37.4486875 18.25,30.625 C18.25,30.3145 18.502,30.0625 18.8125,30.0625 C19.123,30.0625 19.375,30.3145 19.375,30.625 C19.375,36.82825 24.42175,41.875 30.625,41.875 C36.82825,41.875 41.875,36.82825 41.875,30.625 C41.875,24.42175 36.82825,19.375 30.625,19.375 C30.3145,19.375 30.0625,19.123 30.0625,18.8125 C30.0625,18.502 30.3145,18.25 30.625,18.25 C37.4486875,18.25 43,23.8013125 43,30.625 C43,37.4486875 37.4486875,43 30.625,43 Z M28.36375,27.80125 C28.36375,28.11175 28.1123125,28.36375 27.8018125,28.36375 L16.642375,28.36375 C16.6165,28.367125 16.5895,28.369375 16.5625,28.369375 C16.252,28.369375 16,28.123 16,27.8125 L16,27.80125 L16,27.8006875 L16,27.800125 C16.0061875,21.299875 21.3004375,16.0061875 27.80125,16 L27.80125,16 L27.8018125,16 L27.806875,16 L27.8125,16 L27.8125,16 C28.123,16 28.375,16.252 28.375,16.5619375 C28.375,16.6001875 28.3710625,16.637875 28.36375,16.673875 L28.36375,27.80125 Z M27.23875,17.1401875 C21.8044375,17.4293125 17.429875,21.803875 17.1401875,27.23875 L27.23875,27.23875 L27.23875,17.1401875 Z" id="Shape"></path>
        </g>
    </g>
</svg>