<?xml version="1.0" encoding="UTF-8"?>
<svg width="60px" height="60px" viewBox="0 0 60 60" version="1.1" xmlns="http://www.w3.org/2000/svg" xmlns:xlink="http://www.w3.org/1999/xlink">
    <!-- Generator: Sketch 44.1 (41455) - http://www.bohemiancoding.com/sketch -->
    <title>nav-payment</title>
    <desc>Created with Sketch.</desc>
    <defs></defs>
    <g id="Symbols" stroke="none" stroke-width="1" fill="none" fill-rule="evenodd">
        <g id="nav-payment" fill="#FFFFFF">
            <path d="M42.5751875,44 L18.4248125,44 C17.639,44 17,43.3604375 17,42.5751875 L17,18.4248125 C17,17.6395625 17.639,17 18.4248125,17 L42.5751875,17 C43.361,17 44,17.6395625 44,18.4248125 L44,42.5751875 C44,43.3604375 43.361,44 42.5751875,44 Z M42.875,18.4248125 C42.875,18.26225 42.73775,18.125 42.5751875,18.125 L18.4248125,18.125 C18.26225,18.125 18.125,18.26225 18.125,18.4248125 L18.125,42.5751875 C18.125,42.73775 18.26225,42.875 18.4248125,42.875 L42.5751875,42.875 C42.73775,42.875 42.875,42.73775 42.875,42.5751875 L42.875,18.4248125 Z M38.4003125,37.8125 L32.7753125,37.8125 C32.4648125,37.8125 32.2128125,37.5610625 32.2128125,37.25 C32.2128125,36.9389375 32.4648125,36.6875 32.7753125,36.6875 L38.4003125,36.6875 C38.7108125,36.6875 38.9628125,36.9389375 38.9628125,37.25 C38.9628125,37.5610625 38.7108125,37.8125 38.4003125,37.8125 Z M38.375,34.4375 L32.75,34.4375 C32.4395,34.4375 32.1875,34.1860625 32.1875,33.875 C32.1875,33.5639375 32.4395,33.3125 32.75,33.3125 L38.375,33.3125 C38.6855,33.3125 38.9375,33.5639375 38.9375,33.875 C38.9375,34.1860625 38.6855,34.4375 38.375,34.4375 Z M38.375,26 L32.75,26 C32.4395,26 32.1875,25.7485625 32.1875,25.4375 C32.1875,25.1264375 32.4395,24.875 32.75,24.875 L38.375,24.875 C38.6855,24.875 38.9375,25.1264375 38.9375,25.4375 C38.9375,25.7485625 38.6855,26 38.375,26 Z M28.6476875,38.7726875 C28.538,38.882375 28.394,38.9375 28.25,38.9375 C28.106,38.9375 27.962,38.882375 27.8523125,38.7726875 L25.4375,36.357875 L23.0226875,38.7726875 C22.913,38.882375 22.769,38.9375 22.625,38.9375 C22.481,38.9375 22.337,38.882375 22.2273125,38.7726875 C22.007375,38.55275 22.007375,38.19725 22.2273125,37.9773125 L24.642125,35.5625 L22.2273125,33.1476875 C22.007375,32.92775 22.007375,32.57225 22.2273125,32.3523125 C22.44725,32.132375 22.80275,32.132375 23.0226875,32.3523125 L25.4375,34.767125 L27.8523125,32.3523125 C28.07225,32.132375 28.42775,32.132375 28.6476875,32.3523125 C28.867625,32.57225 28.867625,32.92775 28.6476875,33.1476875 L26.232875,35.5625 L28.6476875,37.9773125 C28.867625,38.19725 28.867625,38.55275 28.6476875,38.7726875 Z M28.25,26 L26,26 L26,28.25 C26,28.5610625 25.748,28.8125 25.4375,28.8125 C25.127,28.8125 24.875,28.5610625 24.875,28.25 L24.875,26 L22.625,26 C22.3145,26 22.0625,25.7485625 22.0625,25.4375 C22.0625,25.1264375 22.3145,24.875 22.625,24.875 L24.875,24.875 L24.875,22.625 C24.875,22.3139375 25.127,22.0625 25.4375,22.0625 C25.748,22.0625 26,22.3139375 26,22.625 L26,24.875 L28.25,24.875 C28.5605,24.875 28.8125,25.1264375 28.8125,25.4375 C28.8125,25.7485625 28.5605,26 28.25,26 Z" id="Shape"></path>
        </g>
    </g>
</svg>