<?xml version="1.0" encoding="UTF-8"?>
<svg width="60px" height="60px" viewBox="0 0 60 60" version="1.1" xmlns="http://www.w3.org/2000/svg" xmlns:xlink="http://www.w3.org/1999/xlink">
    <!-- Generator: Sketch 44.1 (41455) - http://www.bohemiancoding.com/sketch -->
    <title>nav-plus</title>
    <desc>Created with Sketch.</desc>
    <defs></defs>
    <g id="Symbols" stroke="none" stroke-width="1" fill="none" fill-rule="evenodd">
        <g id="nav-plus" fill="#FFFFFF">
            <path d="M39.7766212,31.2222222 L31.2215419,31.2222222 L31.2215419,39.7777778 C31.2215419,40.4524444 30.6753688,41 29.9993877,41 C29.3234066,41 28.8225438,40.4524444 28.8225438,39.7777778 L28.8225438,31.2222222 L20.2221542,31.2222222 C19.5461731,31.2222222 19,30.6746667 19,30 C19,29.3253333 19.5461731,28.7777778 20.2221542,28.7777778 L28.8225438,28.7777778 L28.8225438,20.2222222 C28.8225438,19.5475556 29.3234066,19 29.9993877,19 C30.6753688,19 31.2215419,19.5475556 31.2215419,20.2222222 L31.2215419,28.7777778 L39.7766212,28.7777778 C40.4526023,28.7777778 41,29.3253333 41,30 C41,30.6746667 40.4526023,31.2222222 39.7766212,31.2222222 Z" id="Path"></path>
        </g>
    </g>
</svg>