<?xml version="1.0" encoding="UTF-8"?>
<svg width="22px" height="22px" viewBox="0 0 22 22" version="1.1" xmlns="http://www.w3.org/2000/svg" xmlns:xlink="http://www.w3.org/1999/xlink">
    <!-- Generator: Sketch 44.1 (41455) - http://www.bohemiancoding.com/sketch -->
    <title>puzzle-black</title>
    <desc>Created with Sketch.</desc>
    <defs></defs>
    <g id="Symbols" stroke="none" stroke-width="1" fill="none" fill-rule="evenodd">
        <g id="부가서비스-Nav" transform="translate(-15.000000, -16.000000)" fill="#495057">
            <path d="M33.9380657,24.0125833 L35.977045,25.945375 C36.7278589,26.696125 36.7278589,27.9038333 35.9858238,28.645875 L27.0435157,37.4463333 C26.6738843,37.8152917 26.187819,38 25.7012916,38 C25.2138402,38 24.7259267,37.8148333 24.3544471,37.4435833 L15.5558332,28.645875 C14.8147223,27.9038333 14.8147223,26.696125 15.5558332,25.9540833 L17.1152158,24.2848333 C17.5024047,23.8970833 17.9783052,23.7293333 18.4287934,23.81275 C18.8806679,23.8957083 19.2641605,24.2220417 19.4813189,24.7074167 C19.4984144,24.749125 20.4104799,26.9990833 22.0664286,26.9990833 C24.0153103,26.9990833 25.5423501,25.548 25.5423501,23.695875 C25.5423501,22.029375 23.258952,21.0980417 23.23585,21.088875 C22.7326893,20.8638333 22.4064896,20.4802083 22.3228604,20.0282917 C22.2401554,19.5772917 22.4078757,19.1024583 22.7835136,18.726625 L24.3405859,17.0289583 C24.7125276,16.6563333 25.1907382,16.4583333 25.7003675,16.4583333 C26.2095348,16.4583333 26.6877455,16.6563333 27.0462879,17.0152083 L28.9873149,19.062125 C29.4387273,17.3044167 31.0318387,16 32.9280479,16 C35.1730967,16 37,17.8269167 37,20.0718333 C37,21.9684167 35.6956631,23.5615833 33.9380657,24.0125833 Z M32.9280479,16.9166667 C31.188008,16.9166667 29.7723196,18.332 29.7723196,20.0718333 C29.7704715,20.1094167 29.7593825,20.1378333 29.752914,20.167625 C29.7464454,20.1969583 29.7450593,20.2272083 29.7335083,20.2537917 C29.6974693,20.32025 29.6688228,20.36425 29.6313977,20.4004583 C29.5556232,20.455 29.5218944,20.4802083 29.4816969,20.49625 C29.4507403,20.508625 29.4183976,20.5104583 29.3860548,20.5155 C29.3615667,20.519625 29.3393888,20.5301667 29.3139767,20.5301667 C29.270083,20.5283333 29.234968,20.5164167 29.1989289,20.5067917 C29.176751,20.5012917 29.153187,20.5008333 29.1323953,20.492125 C29.0529245,20.4421667 29.0154993,20.4210833 28.9859288,20.390375 C28.9845427,20.389 26.3892681,17.6545833 26.3892681,17.6545833 C26.035346,17.3002917 25.3732437,17.2920417 25.0026882,17.6628333 L23.4456159,19.3605 C23.270041,19.5365 23.1965767,19.70975 23.2242991,19.862375 C23.2524835,20.015 23.3837026,20.1506667 23.5934684,20.244625 C23.693731,20.2845 26.459036,21.4156667 26.459036,23.695875 C26.459036,26.06225 24.52956,27.91575 22.0664286,27.91575 C19.7844167,27.91575 18.682453,25.1790417 18.6367111,25.0621667 C18.5512339,24.872875 18.4153943,24.74225 18.2629213,24.7138333 C18.1104484,24.6845 17.9362596,24.7592083 17.7740838,24.9214583 L16.2147012,26.5907083 C15.8201197,26.9867083 15.8201197,27.61325 16.2045364,27.9977917 L25.0022262,36.7955 C25.3871049,37.1800417 26.0136302,37.1795833 26.3980468,36.7950417 L35.3403549,27.9950417 C35.7224614,27.61325 35.7224614,26.9867083 35.3375827,26.6017083 L32.6124751,24.019 C32.5801323,23.9855417 32.5602646,23.95025 32.5394729,23.9149583 C32.4997375,23.849875 32.5001995,23.82925 32.494655,23.8104583 C32.4835661,23.7715 32.4715531,23.733 32.471091,23.6926667 C32.4697049,23.6633333 32.4794077,23.6440833 32.482642,23.6220833 C32.4877245,23.5863333 32.4904967,23.5510417 32.5038958,23.5175833 C32.517757,23.48275 32.5403969,23.4547917 32.5616507,23.425 C32.5741258,23.4075833 32.5801323,23.3869583 32.5953796,23.3709167 C32.6272603,23.33975 32.6614512,23.3214167 32.694256,23.30125 C32.7127376,23.29025 32.7279849,23.27375 32.7473905,23.2655 C32.8388743,23.242125 32.8795338,23.22975 32.9220414,23.2292917 C34.6680878,23.2279167 36.0833141,21.812125 36.0833141,20.0718333 C36.0833141,18.332 34.6680878,16.9166667 32.9280479,16.9166667 Z" id="puzzle-black"></path>
        </g>
    </g>
</svg>