<?xml version="1.0" encoding="UTF-8"?>
<svg width="15px" height="15px" viewBox="0 0 15 15" version="1.1" xmlns="http://www.w3.org/2000/svg" xmlns:xlink="http://www.w3.org/1999/xlink">
    <!-- Generator: Sketch 44.1 (41455) - http://www.bohemiancoding.com/sketch -->
    <title>question</title>
    <desc>Created with Sketch.</desc>
    <defs></defs>
    <g id="Page-1" stroke="none" stroke-width="1" fill="none" fill-rule="evenodd" opacity="0.699999988">
        <g id="객실관리" transform="translate(-941.000000, -186.000000)">
            <g id="Group-10" transform="translate(910.000000, 186.000000)">
                <g id="question" transform="translate(31.000000, 0.000000)">
                    <circle id="Oval-Copy" fill="#495057" cx="7.5" cy="7.5" r="7.5"></circle>
                    <path d="M6.62558824,9.70411765 L6.62558824,11.4705882 L8.42647059,11.4705882 L8.42647059,9.70411765 L6.62558824,9.70411765 Z M4.77882353,5.91882353 L6.465,5.91882353 C6.465,5.71235191 6.48794095,5.5192656 6.53382353,5.33955882 C6.57970611,5.15985204 6.6504407,5.0030889 6.74602941,4.86926471 C6.84161813,4.73544051 6.96396984,4.62838275 7.11308824,4.54808824 C7.26220663,4.46779372 7.43999897,4.42764706 7.64647059,4.42764706 C7.95235447,4.42764706 8.19132267,4.51176386 8.36338235,4.68 C8.53544204,4.84823614 8.62147059,5.10823354 8.62147059,5.46 C8.62911769,5.66647162 8.59279452,5.83852872 8.5125,5.97617647 C8.43220548,6.11382422 8.32705947,6.23999943 8.19705882,6.35470588 C8.06705817,6.46941234 7.925589,6.58411707 7.77264706,6.69882353 C7.61970512,6.81352999 7.47441245,6.94926392 7.33676471,7.10602941 C7.19911696,7.2627949 7.07867699,7.45205771 6.97544118,7.67382353 C6.87220537,7.89558934 6.80911776,8.17088071 6.78617647,8.49970588 L6.78617647,9.01588235 L8.33470588,9.01588235 L8.33470588,8.58 C8.36529427,8.35058709 8.43985235,8.15941253 8.55838235,8.00647059 C8.67691236,7.85352865 8.81264629,7.71779471 8.96558824,7.59926471 C9.11853018,7.4807347 9.28102855,7.36220647 9.45308824,7.24367647 C9.62514792,7.12514647 9.78191106,6.98176555 9.92338235,6.81352941 C10.0648536,6.64529328 10.1833819,6.44264824 10.2789706,6.20558824 C10.3745593,5.96852823 10.4223529,5.66647242 10.4223529,5.29941176 C10.4223529,5.07764595 10.3745593,4.83867775 10.2789706,4.5825 C10.1833819,4.32632225 10.024707,4.08735405 9.80294118,3.86558824 C9.58117536,3.64382242 9.28867829,3.4583831 8.92544118,3.30926471 C8.56220407,3.16014631 8.10912036,3.08558824 7.56617647,3.08558824 C7.14558613,3.08558824 6.76514876,3.15632282 6.42485294,3.29779412 C6.08455712,3.43926541 5.79397179,3.63617521 5.55308824,3.88852941 C5.31220468,4.14088361 5.12485361,4.43911593 4.99102941,4.78323529 C4.85720521,5.12735466 4.78647063,5.50588029 4.77882353,5.91882353 Z" id="?" fill="#FFFFFF"></path>
                </g>
            </g>
        </g>
    </g>
</svg>