<?xml version="1.0" encoding="UTF-8"?>
<svg width="14px" height="14px" viewBox="0 0 14 14" version="1.1" xmlns="http://www.w3.org/2000/svg" xmlns:xlink="http://www.w3.org/1999/xlink">
    <!-- Generator: Sketch 44.1 (41455) - http://www.bohemiancoding.com/sketch -->
    <title>search</title>
    <desc>Created with Sketch.</desc>
    <defs></defs>
    <g id="Symbols" stroke="none" stroke-width="1" fill="none" fill-rule="evenodd" fill-opacity="0.539999962">
        <g id="Top-Bar" transform="translate(-513.000000, -24.000000)" fill="#FFFFFF">
            <g id="Group-2" transform="translate(264.000000, 17.000000)">
                <path d="M262.918519,19.2222222 C262.97271,19.2846004 263,19.3547758 263,19.4327485 C263,19.5107212 262.97271,19.5808967 262.918519,19.6432749 L261.643275,20.9181287 C261.580507,20.9727096 261.510721,21 261.432749,21 C261.354776,21 261.2846,20.9727096 261.222222,20.9181287 L257.71345,17.4093567 C256.785575,18.0175439 255.768031,18.3216374 254.660819,18.3216374 C253.100975,18.3216374 251.767641,17.7680312 250.661209,16.6608187 C249.553606,15.5536062 249,14.2202729 249,12.6608187 C249,11.1013645 249.553606,9.76803119 250.661209,8.66081871 C251.767641,7.55360624 253.100975,7 254.660819,7 C256.220273,7 257.553606,7.55360624 258.661209,8.66081871 C259.768031,9.76803119 260.322027,11.1013645 260.322027,12.6608187 C260.322027,13.7680312 260.017934,14.785575 259.409747,15.7134503 L262.918519,19.2222222 Z M250.789474,12.6608187 C250.789474,13.7212476 251.167641,14.6296296 251.923977,15.3859649 C252.680312,16.1423002 253.592593,16.5204678 254.660819,16.5204678 C255.729045,16.5204678 257.391813,15.3918129 257.391813,15.3918129 C257.391813,15.3918129 258.520468,13.7290448 258.520468,12.6608187 C258.520468,11.5925926 258.14425,10.6822612 257.391813,9.92982456 C256.639376,9.17738791 255.729045,8.80116959 254.660819,8.80116959 C253.592593,8.80116959 252.680312,9.17933723 251.923977,9.93567251 C251.167641,10.6920078 250.789474,11.6003899 250.789474,12.6608187 Z" id="search"></path>
            </g>
        </g>
    </g>
</svg>