<?xml version="1.0" encoding="UTF-8"?>
<svg width="28px" height="28px" viewBox="0 0 28 28" version="1.1" xmlns="http://www.w3.org/2000/svg" xmlns:xlink="http://www.w3.org/1999/xlink">
    <!-- Generator: Sketch 44.1 (41455) - http://www.bohemiancoding.com/sketch -->
    <title>setting</title>
    <desc>Created with Sketch.</desc>
    <defs></defs>
    <g id="Symbols" stroke="none" stroke-width="1" fill="none" fill-rule="evenodd" opacity="0.8">
        <g id="Top-Bar" transform="translate(-1723.000000, -16.000000)" fill="#FFFFFF">
            <path d="M1750.50529,32.2833513 L1747.31769,32.7751421 C1747.08142,33.6595489 1746.73022,34.5089527 1746.26935,35.3105192 L1748.21318,37.8587307 C1748.38995,38.0903332 1748.36894,38.417027 1748.16301,38.6235442 L1745.69589,41.1070003 C1745.49287,41.3123506 1745.17026,41.3380194 1744.93633,41.1659218 L1742.33619,39.2530131 C1741.53463,39.7162182 1740.68172,40.0709143 1739.7909,40.3118509 L1739.3697,43.4831141 C1739.33178,43.7724715 1739.08559,43.9889061 1738.7939,43.9900729 L1735.29828,44.0023239 L1735.29594,44.0023239 C1735.00833,44.0023239 1734.76331,43.7923064 1734.71956,43.5070328 L1734.23244,40.3229352 C1733.35095,40.0878324 1732.50271,39.7395534 1731.70348,39.2839323 L1729.14301,41.2160927 C1728.91025,41.3911072 1728.58647,41.3689387 1728.38053,41.1647551 L1725.89475,38.698217 C1725.68998,38.4952002 1725.66431,38.1731735 1725.83466,37.9398208 L1727.73298,35.3408551 C1727.26044,34.5264542 1726.90166,33.661299 1726.66248,32.761141 L1723.52388,32.3702752 C1723.23277,32.3346889 1723.01342,32.0873351 1723.01226,31.793894 L1723,28.298854 C1722.99884,28.0094967 1723.21002,27.7627262 1723.49646,27.7195559 L1726.67764,27.2405995 C1726.92208,26.3369412 1727.28436,25.4729528 1727.75807,24.6643857 L1725.79207,22.149427 C1725.61122,21.9178244 1725.63106,21.587047 1725.83816,21.3787797 L1728.30586,18.8947402 C1728.5118,18.6870563 1728.83966,18.6643044 1729.07301,18.8416525 L1731.64572,20.7994816 C1732.45371,20.3316095 1733.31419,19.9739965 1734.2126,19.7336432 L1734.6268,16.5186264 C1734.66356,16.2286856 1734.91091,16.0105009 1735.20318,16.0099175 L1738.70406,16 L1738.70581,16 C1738.99575,16 1739.24077,16.212351 1739.28277,16.4993748 L1739.75181,19.7278094 C1740.62805,19.9611621 1741.47104,20.3071074 1742.26794,20.7592283 L1744.85757,18.7868146 C1745.08859,18.6118001 1745.41411,18.6322184 1745.6218,18.8375688 L1748.10584,21.3052736 C1748.31236,21.5100406 1748.33569,21.8367344 1748.16009,22.0695037 L1746.2186,24.6492178 C1746.69172,25.454868 1747.054,26.3153561 1747.30019,27.2160975 L1750.48137,27.632632 C1750.77073,27.6705519 1750.98774,27.9173223 1750.98891,28.2095966 L1751,31.70522 C1751.00116,31.9934106 1750.79114,32.2395977 1750.50529,32.2833513 Z M1749.8239,28.7235559 L1746.75589,28.3210225 C1746.51496,28.2895199 1746.31836,28.1121718 1746.2641,27.8747355 C1746.02025,26.8275652 1745.60255,25.8363996 1745.02267,24.9304078 C1744.8914,24.724474 1744.90191,24.4596187 1745.04833,24.2647692 L1746.92216,21.7743125 L1745.15976,20.0230005 L1742.66114,21.9259918 C1742.4692,22.0724206 1742.20668,22.0846716 1742.00133,21.9580778 C1741.09884,21.3997815 1740.12343,20.9995816 1739.10309,20.7697292 C1738.8674,20.7166414 1738.68889,20.5235421 1738.65447,20.2843556 L1738.2006,17.1679303 L1735.71831,17.1755142 L1735.31869,20.2785217 C1735.28777,20.5212085 1735.10809,20.7183916 1734.86949,20.7732295 C1733.82349,21.0106658 1732.83115,21.4225333 1731.91874,21.996581 C1731.71281,22.1278419 1731.44854,22.1150075 1731.25427,21.9674119 L1728.77315,20.0795886 L1727.02826,21.836151 L1728.926,24.2636025 C1729.07826,24.458452 1729.09109,24.7285577 1728.95808,24.936825 C1728.37703,25.8469005 1727.95933,26.8403996 1727.71665,27.8910702 C1727.66298,28.1238395 1727.47221,28.3006041 1727.23536,28.3367738 L1724.16852,28.7982288 L1724.17727,31.2758511 L1727.2056,31.6527157 C1727.45004,31.6830515 1727.64897,31.8633165 1727.70265,32.1036698 C1727.936,33.1479231 1728.34787,34.142589 1728.92658,35.0608318 C1729.05376,35.2632653 1729.04501,35.5228702 1728.90383,35.7159695 L1727.07259,38.2233443 L1728.84374,39.9799067 L1731.31319,38.1165854 C1731.41704,38.0378289 1731.54071,37.9987423 1731.66497,37.9987423 C1731.77115,37.9987423 1731.87791,38.0279114 1731.97242,38.0862496 C1732.87607,38.6468794 1733.85382,39.0488295 1734.87882,39.280432 C1735.11276,39.3335198 1735.29069,39.5242856 1735.32686,39.761722 L1735.79707,42.8338102 L1738.28052,42.8244761 L1738.68656,39.7646389 C1738.71864,39.5237022 1738.89774,39.3276859 1739.13459,39.2734314 C1740.1701,39.0354117 1741.15368,38.6270445 1742.05734,38.0582473 C1742.26035,37.93107 1742.52054,37.9404041 1742.71364,38.0827493 L1745.22335,39.9279858 L1746.97758,38.1615058 L1745.10259,35.7031351 C1744.95499,35.5100358 1744.94274,35.2457638 1745.07167,35.0404135 C1745.63755,34.135005 1746.04358,33.155507 1746.27577,32.1287552 C1746.32886,31.8954025 1746.51904,31.717471 1746.75589,31.6813014 L1749.83148,31.2064286 L1749.8239,28.7235559 Z M1736.94283,35.8192281 C1733.72606,35.8192281 1731.10901,33.2015942 1731.10901,29.9848273 C1731.10901,26.7680603 1733.72606,24.1510098 1736.94283,24.1510098 C1740.1596,24.1510098 1742.77606,26.7680603 1742.77606,29.9848273 C1742.77606,33.2015942 1740.1596,35.8192281 1736.94283,35.8192281 Z M1736.94283,25.3177733 C1734.36953,25.3177733 1732.27577,27.4115304 1732.27577,29.9848273 C1732.27577,32.5587075 1734.36953,34.6524646 1736.94283,34.6524646 C1739.51613,34.6524646 1741.6093,32.5587075 1741.6093,29.9848273 C1741.6093,27.4115304 1739.51613,25.3177733 1736.94283,25.3177733 Z" id="setting"></path>
        </g>
    </g>
</svg>