<?xml version="1.0" encoding="UTF-8"?>
<svg width="22px" height="22px" viewBox="0 0 22 22" version="1.1" xmlns="http://www.w3.org/2000/svg" xmlns:xlink="http://www.w3.org/1999/xlink">
    <!-- Generator: Sketch 44.1 (41455) - http://www.bohemiancoding.com/sketch -->
    <title>setting-black</title>
    <desc>Created with Sketch.</desc>
    <defs></defs>
    <g id="Symbols" stroke="none" stroke-width="1" fill="none" fill-rule="evenodd">
        <g id="Setting-Nav" transform="translate(-15.000000, -15.000000)" fill="#495057">
            <path d="M36.6112973,27.7940618 L34.1067561,28.1804688 C33.9211157,28.8753598 33.6451761,29.5427486 33.2830627,30.1725508 L34.8103562,32.174717 C34.9492427,32.3566904 34.9327413,32.6133784 34.7709362,32.7756418 L32.8324837,34.7269288 C32.6729704,34.8882755 32.4194911,34.9084438 32.2356841,34.7732243 L30.1927229,33.2702246 C29.5629207,33.6341714 28.8927817,33.9128612 28.1928486,34.1021686 L27.8619045,36.5938754 C27.8321104,36.8212276 27.6386776,36.9912834 27.409492,36.9922001 L24.6629307,37.0018259 L24.6610972,37.0018259 C24.4351201,37.0018259 24.2426041,36.8368122 24.2082263,36.6126686 L23.8254862,34.1108777 C23.1328871,33.926154 22.4664151,33.6525063 21.8384463,33.2945182 L19.8266543,34.8126442 C19.6437642,34.9501556 19.389368,34.9327375 19.227563,34.7723075 L17.2744425,32.8343134 C17.1135542,32.6748001 17.0933858,32.4217791 17.2272303,32.2384306 L18.7187707,30.1963861 C18.3474899,29.5564997 18.0655915,28.8767349 17.8776593,28.1694679 L15.4116213,27.8623591 C15.182894,27.8343984 15.0105463,27.640049 15.0096296,27.4094882 L15.0000038,24.6633853 C14.999087,24.4360331 15.1650175,24.242142 15.3900778,24.2082225 L17.8895769,23.8318996 C18.0816345,23.1218824 18.3662831,22.4430344 18.7384807,21.8077316 L17.1937692,19.8316926 C17.051674,19.6497192 17.0672587,19.3898226 17.2299805,19.2261841 L19.1688914,17.2744388 C19.3306965,17.1112585 19.5883012,17.0933821 19.7716498,17.232727 L21.7930675,18.7710213 C22.4279119,18.4034074 23.1040097,18.1224258 23.8099016,17.9335768 L24.1353452,15.4074922 C24.1642226,15.1796816 24.3585721,15.0082507 24.5882162,15.0077923 L27.3389028,15 L27.3402779,15 C27.5680885,15 27.7606044,15.1668472 27.7936072,15.3923659 L28.1621378,17.9289931 C28.8506116,18.1123416 29.5129582,18.3841558 30.1390935,18.7393937 L32.173804,17.18964 C32.3553191,17.0521286 32.6110903,17.0681716 32.7742705,17.2295184 L34.7260158,19.1684293 C34.8882793,19.3293176 34.9066141,19.5860056 34.7686444,19.7688958 L33.2431844,21.795814 C33.6149236,22.4288248 33.8995722,23.1049226 34.093005,23.812648 L36.592504,24.1399252 C36.8198562,24.1697193 36.9903704,24.3636104 36.9912871,24.5932545 L36.9999962,27.3398157 C37.0009129,27.5662512 36.8358992,27.7596839 36.6112973,27.7940618 Z M36.0759195,24.9970796 L33.6653445,24.6808034 C33.4760371,24.6560513 33.3215659,24.5167064 33.2789374,24.3301493 C33.0873382,23.5073727 32.7591443,22.7285997 32.3035231,22.016749 C32.2003896,21.8549439 32.2086402,21.6468433 32.3236915,21.4937472 L33.7959803,19.5369599 L32.4112404,18.160929 L30.4480358,19.6561364 C30.2972316,19.7711876 30.0909645,19.7808134 29.9296178,19.6813468 C29.2205173,19.2426854 28.4541203,18.9282427 27.6524288,18.7476443 C27.4672468,18.7059326 27.3269851,18.5542116 27.2999412,18.3662794 L26.9433283,15.9176595 L24.9929581,15.9236183 L24.6789737,18.3616956 C24.65468,18.5523781 24.5135016,18.7073077 24.3260277,18.7503946 C23.5041679,18.9369517 22.7244782,19.2605619 22.0075853,19.7115993 C21.8457802,19.8147329 21.638138,19.8046487 21.4855003,19.6886808 L19.5360469,18.205391 L18.1650581,19.5855472 L19.6561402,21.4928305 C19.7757751,21.6459265 19.7858593,21.8581525 19.6813506,22.0217911 C19.2248127,22.7368504 18.8966188,23.5174569 18.7059363,24.3429837 C18.6637662,24.5258739 18.5138787,24.6647604 18.3277799,24.6931794 L15.9181216,25.0557512 L15.9249972,27.0024544 L18.304403,27.2985623 C18.4964606,27.3223976 18.6527653,27.4640344 18.6949354,27.6528834 C18.878284,28.4733681 19.2018942,29.2548913 19.6565986,29.9763679 C19.7565235,30.1354227 19.7496479,30.339398 19.6387221,30.4911189 L18.1998943,32.4611991 L19.5915098,33.8413553 L21.5317958,32.3773171 C21.6133859,32.315437 21.7105607,32.2847261 21.8081938,32.2847261 C21.8916174,32.2847261 21.9754993,32.3076447 22.0497555,32.3534818 C22.7597728,32.7939767 23.5280032,33.1097946 24.3333617,33.291768 C24.5171686,33.3334798 24.6569719,33.4833672 24.6853909,33.6699244 L25.0548382,36.083708 L27.0061252,36.0763741 L27.3251516,33.6722163 C27.3503621,33.4829089 27.4910821,33.3288961 27.6771808,33.2862676 C28.49079,33.099252 29.2636042,32.7783921 29.9736214,32.33148 C30.1331347,32.231555 30.3375683,32.238889 30.4892892,32.3507316 L32.4612029,33.8005602 L33.8395256,32.4126117 L32.36632,30.4810348 C32.250352,30.3293138 32.2407262,30.1216716 32.3420263,29.9603249 C32.7866465,29.2489325 33.105673,28.479327 33.2881048,27.6725933 C33.3298166,27.4892448 33.4792457,27.3494415 33.6653445,27.3210225 L36.0818783,26.9479082 L36.0759195,24.9970796 Z M25.9550796,30.5722507 C23.4276198,30.5722507 21.3713659,28.5155383 21.3713659,25.9880786 C21.3713659,23.4606188 23.4276198,21.4043648 25.9550796,21.4043648 C28.4825393,21.4043648 30.538335,23.4606188 30.538335,25.9880786 C30.538335,28.5155383 28.4825393,30.5722507 25.9550796,30.5722507 Z M25.9550796,22.3211076 C23.9332035,22.3211076 22.2881086,23.9662024 22.2881086,25.9880786 C22.2881086,28.0104131 23.9332035,29.6555079 25.9550796,29.6555079 C27.9769557,29.6555079 29.6215922,28.0104131 29.6215922,25.9880786 C29.6215922,23.9662024 27.9769557,22.3211076 25.9550796,22.3211076 Z" id="setting-black"></path>
        </g>
    </g>
</svg>