<?xml version="1.0" encoding="UTF-8"?>
<svg width="22px" height="22px" viewBox="0 0 22 22" version="1.1" xmlns="http://www.w3.org/2000/svg" xmlns:xlink="http://www.w3.org/1999/xlink">
    <!-- Generator: Sketch 44.1 (41455) - http://www.bohemiancoding.com/sketch -->
    <title>speech</title>
    <desc>Created with Sketch.</desc>
    <defs></defs>
    <g id="Page-1" stroke="none" stroke-width="1" fill="none" fill-rule="evenodd" opacity="0.799999952">
        <g id="Top-계정창" transform="translate(-31.000000, -312.000000)" fill="#495057">
            <g id="speech" transform="translate(31.000000, 312.000000)">
                <path d="M20.625,16.2916667 L8.47045833,16.2916667 L4.94129167,20.9031667 C4.852375,21.0196042 4.71991667,21.0833333 4.58333333,21.0833333 C4.53291667,21.0833333 4.481125,21.0742292 4.431625,21.0565 C4.24829167,20.9889375 4.125,20.8078125 4.125,20.6041667 L4.125,16.2916667 L1.375,16.2916667 C0.616916667,16.2916667 0,15.6467083 0,14.8541667 L0,1.4375 C0,0.644958333 0.616916667,0 1.375,0 L20.625,0 C21.3830833,0 22,0.644958333 22,1.4375 L22,14.8541667 C22,15.6467083 21.3830833,16.2916667 20.625,16.2916667 Z M21.0833333,1.4375 C21.0833333,1.17347917 20.878,0.958333333 20.625,0.958333333 L1.375,0.958333333 C1.122,0.958333333 0.916666667,1.17347917 0.916666667,1.4375 L0.916666667,14.8541667 C0.916666667,15.1181875 1.122,15.3333333 1.375,15.3333333 L4.58333333,15.3333333 C4.83679167,15.3333333 5.04166667,15.548 5.04166667,15.8125 L5.04166667,19.2380625 L7.89204167,15.5130208 C7.89754167,15.5063125 7.90533333,15.5034375 7.91129167,15.4967292 C7.93283333,15.4708542 7.95895833,15.4516875 7.986,15.4315625 C8.008,15.4147917 8.02816667,15.3965833 8.052,15.3846042 C8.078125,15.3711875 8.10654167,15.3654375 8.13495833,15.3577708 C8.16520833,15.3491458 8.193625,15.3405208 8.22479167,15.3386042 C8.2335,15.338125 8.24129167,15.3333333 8.25,15.3333333 L20.625,15.3333333 C20.878,15.3333333 21.0833333,15.1181875 21.0833333,14.8541667 L21.0833333,1.4375 Z M17.4166667,8.625 L4.58333333,8.625 C4.329875,8.625 4.125,8.41033333 4.125,8.14583333 C4.125,7.88133333 4.329875,7.66666667 4.58333333,7.66666667 L17.4166667,7.66666667 C17.670125,7.66666667 17.875,7.88133333 17.875,8.14583333 C17.875,8.41033333 17.670125,8.625 17.4166667,8.625 Z M17.4166667,5.75 L4.58333333,5.75 C4.329875,5.75 4.125,5.53533333 4.125,5.27083333 C4.125,5.00633333 4.329875,4.79166667 4.58333333,4.79166667 L17.4166667,4.79166667 C17.670125,4.79166667 17.875,5.00633333 17.875,5.27083333 C17.875,5.53533333 17.670125,5.75 17.4166667,5.75 Z M4.58333333,10.5416667 L12.8333333,10.5416667 C13.0867917,10.5416667 13.2916667,10.7563333 13.2916667,11.0208333 C13.2916667,11.2853333 13.0867917,11.5 12.8333333,11.5 L4.58333333,11.5 C4.329875,11.5 4.125,11.2853333 4.125,11.0208333 C4.125,10.7563333 4.329875,10.5416667 4.58333333,10.5416667 Z" id="Shape"></path>
            </g>
        </g>
    </g>
</svg>