<?xml version="1.0" encoding="UTF-8"?>
<svg width="22px" height="22px" viewBox="0 0 22 22" version="1.1" xmlns="http://www.w3.org/2000/svg" xmlns:xlink="http://www.w3.org/1999/xlink">
    <!-- Generator: Sketch 44.1 (41455) - http://www.bohemiancoding.com/sketch -->
    <title>support</title>
    <desc>Created with Sketch.</desc>
    <defs></defs>
    <g id="Page-1" stroke="none" stroke-width="1" fill="none" fill-rule="evenodd" opacity="0.799999952">
        <g id="Top-계정창" transform="translate(-30.000000, -271.000000)" fill="#495057">
            <g id="support" transform="translate(30.000000, 271.000000)">
                <path d="M11,22 C4.934875,22 0,17.065125 0,11 C0,10.1566667 0.1045,9.33854167 0.285083333,8.54929167 C0.287833333,8.54104167 0.287833333,8.531875 0.2915,8.52408333 C1.23429167,4.44720833 4.44445833,1.236125 8.52133333,0.291958333 C8.54425,0.281875 8.570375,0.279583333 8.59558333,0.273166667 C9.370625,0.0994583333 10.1731667,0 11,0 C11.8272917,0 12.63075,0.0994583333 13.40625,0.273166667 C13.4305417,0.279583333 13.45575,0.281875 13.4782083,0.291958333 C17.5550833,1.23566667 20.7657083,4.44675 21.7085,8.52408333 C21.7121667,8.531875 21.7121667,8.54104167 21.7149167,8.54929167 C21.8955,9.33854167 22,10.1566667 22,11 C22,17.065125 17.065125,22 11,22 Z M20.6932917,13.7463333 L15.7579583,13.7463333 C15.2753333,14.579125 14.5823333,15.2725833 13.75,15.7556667 L13.75,20.692375 C17.1013333,19.7399583 19.7417917,17.0985833 20.6932917,13.7463333 Z M11,6.41666667 C8.47275,6.41666667 6.41666667,8.47275 6.41666667,11 C6.41666667,12.764125 7.42041667,14.2963333 8.88525,15.0622083 C8.88708333,15.0626667 8.88845833,15.0640417 8.89029167,15.0645 C9.52233333,15.3940417 10.2391667,15.5833333 11,15.5833333 C11.76175,15.5833333 12.4785833,15.3940417 13.1115417,15.0640417 C13.1124583,15.063125 13.113375,15.0626667 13.11475,15.0622083 C14.5795833,14.2963333 15.5833333,12.764125 15.5833333,11 C15.5833333,8.47275 13.52725,6.41666667 11,6.41666667 Z M11,21.0833333 C11.627,21.0833333 12.2379583,21.01825 12.8333333,20.90825 L12.8333333,16.1791667 C12.2590417,16.383125 11.6435,16.5 11,16.5 C10.3565,16.5 9.74141667,16.383125 9.167125,16.1791667 L9.167125,20.90825 C9.7625,21.01825 10.3734583,21.0833333 11,21.0833333 Z M8.25045833,20.692375 L8.25045833,15.756125 C7.418125,15.2730417 6.725125,14.5795833 6.2425,13.74725 L1.30670833,13.7467917 C2.25820833,17.0990417 4.899125,19.7399583 8.25045833,20.692375 Z M0.916666667,11 C0.916666667,11.625625 0.98175,12.2356667 1.09129167,12.830125 L5.81991667,12.8305833 C5.61641667,12.25675 5.5,11.6425833 5.5,11 C5.5,10.3555833 5.61733333,9.739125 5.82175,9.16391667 L1.09220833,9.16391667 C0.98175,9.76020833 0.916666667,10.3720833 0.916666667,11 Z M1.30808333,8.24725 L6.24570833,8.24725 C6.72833333,7.41766667 7.41995833,6.72604167 8.25,6.24433333 L8.25,1.307625 C4.9005,2.25958333 2.26095833,4.89820833 1.30808333,8.24725 Z M11,0.916666667 C10.373,0.916666667 9.76204167,0.98175 9.16666667,1.09175 L9.16666667,5.82083333 C9.74095833,5.616875 10.3565,5.5 11,5.5 C11.6435,5.5 12.2585833,5.616875 12.832875,5.82083333 L12.832875,1.09175 C12.2375,0.98175 11.6265417,0.916666667 11,0.916666667 Z M13.7495417,1.307625 L13.7495417,6.243875 C14.5800417,6.72604167 15.2716667,7.41720833 15.7542917,8.24725 L20.6919167,8.24725 C19.7385833,4.89820833 17.0990417,2.259125 13.7495417,1.307625 Z M20.9077917,9.16391667 L16.17825,9.16391667 C16.3826667,9.739125 16.5,10.3555833 16.5,11 C16.5,11.642125 16.3835833,12.2562917 16.1805417,12.8296667 L20.9087083,12.8296667 C21.01825,12.2352083 21.0833333,11.625625 21.0833333,11 C21.0833333,10.3720833 21.01825,9.76020833 20.9077917,9.16391667 Z" id="Shape"></path>
            </g>
        </g>
    </g>
</svg>