<?xml version="1.0" encoding="UTF-8"?>
<svg width="15px" height="18px" viewBox="0 0 15 18" version="1.1" xmlns="http://www.w3.org/2000/svg" xmlns:xlink="http://www.w3.org/1999/xlink">
    <!-- Generator: Sketch 44.1 (41455) - http://www.bohemiancoding.com/sketch -->
    <title>trash</title>
    <desc>Created with Sketch.</desc>
    <defs></defs>
    <g id="Page-1" stroke="none" stroke-width="1" fill="none" fill-rule="evenodd" opacity="0.699999988">
        <g id="Top-알림창" transform="translate(-26.000000, -14.000000)" fill="#495057">
            <g id="trash" transform="translate(26.000000, 14.000000)">
                <path d="M13.89375,4.33333333 L13.0966875,4.33333333 L11.7767813,15.9741111 C11.6897625,16.7360556 11.0140875,17.3333333 10.2375,17.3333333 L4.3875,17.3333333 C3.61018125,17.3333333 2.9352375,16.7353333 2.84968125,15.9726667 L1.55025,4.33333333 L0.73125,4.33333333 C0.32686875,4.33333333 0,4.00977778 0,3.61111111 C0,3.21244444 0.32686875,2.88888889 0.73125,2.88888889 L4.3875,2.88888889 L4.3875,2.16666667 C4.3875,0.972111111 5.3717625,0 6.58125,0 L8.04375,0 C9.2532375,0 10.2375,0.972111111 10.2375,2.16666667 L10.2375,2.88888889 L13.89375,2.88888889 C14.2981313,2.88888889 14.625,3.21244444 14.625,3.61111111 C14.625,4.00977778 14.2981313,4.33333333 13.89375,4.33333333 Z M8.775,2.16666667 C8.775,1.76872222 8.4474,1.44444444 8.04375,1.44444444 L6.58125,1.44444444 C6.1776,1.44444444 5.85,1.76872222 5.85,2.16666667 L5.85,2.88888889 L8.775,2.88888889 L8.775,2.16666667 Z M3.021525,4.33333333 L4.30340625,15.8137778 C4.30633125,15.8419444 4.35825,15.8888889 4.3875,15.8888889 L10.2375,15.8888889 C10.26675,15.8888889 10.3201313,15.8419444 10.3230563,15.8123333 L11.6246813,4.33333333 L3.021525,4.33333333 Z" id="Shape"></path>
            </g>
        </g>
    </g>
</svg>