<?xml version="1.0" encoding="UTF-8"?>
<svg width="23px" height="23px" viewBox="0 0 23 23" version="1.1" xmlns="http://www.w3.org/2000/svg" xmlns:xlink="http://www.w3.org/1999/xlink">
    <!-- Generator: Sketch 44.1 (41455) - http://www.bohemiancoding.com/sketch -->
    <title>user</title>
    <desc>Created with Sketch.</desc>
    <defs></defs>
    <g id="Page-1" stroke="none" stroke-width="1" fill="none" fill-rule="evenodd" opacity="0.799999952">
        <g id="Top-계정창" transform="translate(-29.000000, -26.000000)" fill="#495057">
            <path d="M50.7862708,48.9413265 L30.2137292,48.9413265 C29.5448125,48.9413265 29,48.3936024 29,47.7201788 L29,46.2332941 C29,46.0588444 29.0953542,45.8982552 29.2486875,45.814137 L36.8089792,41.6741834 C34.2991042,39.1592405 34.2708333,35.3806128 34.2708333,35.2109426 L34.2751458,30.8453993 C34.2751458,30.8191124 34.2775417,30.7933034 34.281375,30.7674944 C34.7533542,27.9328068 37.8449375,26.0234193 40.4554375,26.0019118 C40.4698125,26.0009559 40.4851458,26 40.5,26 C43.1196042,26 46.2437708,27.9151228 46.7200625,30.7665385 C46.7238958,30.7918696 46.7262917,30.8181565 46.7262917,30.8444435 L46.7291667,35.2095088 C46.7291667,35.3787011 46.7008958,39.1573287 44.1905417,41.6732275 L51.7513125,45.813659 C51.9046458,45.8972993 52,46.0578886 52,46.2323382 L52,47.7201788 C52,48.3936024 51.4551875,48.9413265 50.7862708,48.9413265 Z M51.0416667,46.5162371 L43.1531458,42.1951427 C43.1521875,42.1951427 43.1512292,42.1946648 43.15075,42.1941868 L43.1435625,42.1898853 C43.1172083,42.1760249 43.1004375,42.1530836 43.0779167,42.1349217 C43.0534792,42.115326 43.0252083,42.1005097 43.0046042,42.0751787 C43.0036458,42.0742228 43.0031667,42.072789 43.0022083,42.0713551 C42.9710625,42.0326416 42.9509375,41.9877149 42.9332083,41.9423102 C42.9284167,41.9298836 42.9183542,41.9188909 42.9145208,41.9064643 C42.9039792,41.8696626 42.9054167,41.8309491 42.9035,41.7927136 C42.9025417,41.7697723 42.894875,41.7473089 42.8972708,41.7243676 C42.8991875,41.7052498 42.9097292,41.6875658 42.9140417,41.6684481 C42.9231458,41.6268669 42.9317708,41.5843299 42.952375,41.5460943 C42.9533333,41.5446605 42.9528542,41.5427487 42.9538125,41.5413149 C42.9710625,41.5097706 42.9978958,41.4877851 43.0208958,41.4619761 C43.0381458,41.4423804 43.0486875,41.4194391 43.0692917,41.402711 C45.7435208,39.2032114 45.7708333,35.250134 45.7708333,35.2104647 L45.7679583,30.8855467 C45.3577917,28.5823331 42.7032083,26.9759623 40.54025,26.9563665 C40.5273125,26.9573224 40.5134167,26.9578004 40.5,26.9578004 C38.3298542,26.9578004 35.6450833,28.5694286 35.2334792,30.8865026 L35.2291667,35.2118985 C35.2291667,35.2510899 35.2651042,39.2122923 37.9307083,41.403189 C37.9532292,41.4218288 37.9656875,41.4471599 37.9838958,41.4686674 C38.0049792,41.4930425 38.0298958,41.5126382 38.0461875,41.5422708 C38.0471458,41.5437046 38.0466667,41.5451384 38.047625,41.5470502 C38.0687083,41.5857637 38.0773333,41.6283008 38.0864375,41.6708378 C38.09075,41.6894776 38.1008125,41.7066836 38.1027292,41.7253234 C38.1046458,41.7477868 38.0974583,41.7702502 38.0965,41.7927136 C38.0945833,41.8314271 38.0965,41.8701406 38.0854792,41.9074202 C38.082125,41.9184129 38.0730208,41.9284498 38.0687083,41.9394425 C38.0509792,41.986759 38.0298958,42.0326416 37.9973125,42.072311 C37.9963542,42.0737448 37.9963542,42.0751787 37.9953958,42.0761346 C37.9882083,42.0852155 37.9767083,42.0885611 37.9685625,42.0966862 C37.9350208,42.132054 37.9014792,42.166466 37.8564375,42.1913191 L29.9583333,46.5162371 L29.9583333,47.7201788 C29.9583333,47.8640401 30.07525,47.9854379 30.2137292,47.9854379 L50.7862708,47.9854379 C50.9271458,47.9854379 51.0416667,47.8664298 51.0416667,47.7201788 L51.0416667,46.5162371 Z" id="user"></path>
        </g>
    </g>
</svg>